<?xml version="1.0" standalone="no"?>
<!DOCTYPE svg PUBLIC "-//W3C//DTD SVG 20010904//EN"
 "http://www.w3.org/TR/2001/REC-SVG-20010904/DTD/svg10.dtd">
<svg version="1.0" xmlns="http://www.w3.org/2000/svg"
 width="2816.000000pt" height="1536.000000pt" viewBox="0 0 2816.000000 1536.000000"
 preserveAspectRatio="xMidYMid meet">

<g transform="translate(0.000000,1536.000000) scale(0.100000,-0.100000)"
fill="#000000" stroke="none">
<path d="M17184 14096 c-83 -31 -234 -115 -316 -177 -223 -166 -491 -463 -608
-672 -26 -46 -31 -64 -26 -90 20 -95 1 -122 -91 -131 -108 -11 -133 -21 -254
-102 -213 -141 -552 -296 -1104 -504 -180 -68 -232 -94 -375 -191 l-117 -80
-113 26 c-62 14 -127 32 -144 39 -39 16 -113 96 -132 141 -16 40 -18 91 -4
100 6 4 45 -14 88 -38 42 -25 108 -56 145 -69 l69 -23 32 39 c40 47 242 409
252 451 7 29 6 29 -12 13 -34 -30 -110 -50 -162 -42 -105 16 -166 93 -179 227
-12 129 12 149 172 149 97 0 103 1 109 21 12 44 5 67 -25 94 -31 28 -31 29
-25 100 6 63 5 72 -11 77 -36 10 -557 77 -569 72 -7 -3 -16 -31 -20 -62 -5
-43 -13 -63 -32 -81 -14 -13 -28 -23 -32 -23 -4 0 -12 -19 -19 -42 -12 -50 -1
-64 58 -74 20 -3 52 -12 71 -19 19 -8 46 -17 60 -21 44 -12 70 -49 63 -91 -15
-98 -95 -214 -161 -233 -79 -21 -164 -2 -222 52 -22 21 -50 14 -50 -13 0 -19
-92 -99 -114 -99 -6 0 -27 11 -46 23 -19 13 -84 52 -145 87 -108 62 -110 62
-170 57 -33 -3 -145 -22 -250 -42 -585 -111 -1053 -242 -1320 -370 -91 -44
-313 -178 -350 -212 -51 -46 -56 -44 -15 6 89 106 96 115 77 108 -10 -4 -97
-32 -195 -63 -403 -128 -998 -376 -1362 -565 -74 -39 -136 -72 -137 -73 -4 -4
-64 -475 -78 -616 -39 -403 -48 -600 -47 -1096 l1 -491 -36 -34 c-108 -104
-247 -297 -324 -451 -98 -196 -137 -362 -125 -538 25 -393 250 -705 659 -914
97 -50 102 -54 110 -92 27 -121 90 -381 111 -459 14 -49 24 -90 23 -91 -1 -1
-63 -9 -137 -18 -127 -16 -703 -100 -890 -130 -73 -12 467 -14 3796 -15 l3882
-1 -332 334 c-436 439 -469 461 -696 461 l-125 0 -184 -63 c-201 -69 -336 -97
-521 -108 -133 -8 -344 8 -482 36 l-92 19 -201 -69 c-393 -136 -697 -208
-1179 -280 -142 -22 -194 -22 -86 -1 34 7 133 32 221 57 88 25 164 42 171 38
6 -4 8 -3 5 3 -8 13 79 37 95 27 6 -4 8 -3 4 4 -3 6 9 15 31 22 140 45 456
169 588 229 61 29 98 40 115 36 14 -3 -49 31 -139 75 l-164 81 -127 -55 c-454
-196 -1031 -347 -1505 -396 -165 -17 -611 -37 -530 -24 348 56 446 77 755 161
377 102 830 272 1129 423 l62 31 -68 51 c-79 58 -143 118 -143 133 0 5 32 22
71 38 l71 27 83 -62 c105 -79 316 -206 437 -263 114 -53 302 -117 426 -145 51
-11 159 -25 240 -32 124 -9 169 -9 289 5 173 20 262 42 430 106 158 61 236 75
362 68 112 -6 235 -46 328 -106 73 -47 295 -254 480 -448 355 -372 456 -469
506 -488 130 -49 317 30 509 214 89 84 184 219 218 308 28 71 37 196 20 257
-6 24 -25 60 -41 79 -16 19 -135 110 -266 203 -286 202 -390 280 -588 437
-245 195 -276 233 -311 370 -22 85 -14 175 30 321 56 182 69 289 63 490 -3 94
-13 212 -22 261 -18 97 -71 271 -109 356 l-23 53 34 55 c83 139 123 286 123
456 0 182 -44 331 -139 478 -233 356 -708 490 -1097 308 -100 -47 -149 -80
-235 -160 l-67 -61 -58 21 c-201 69 -486 98 -758 77 -346 -27 -707 -164 -988
-375 -99 -74 -277 -259 -344 -358 -192 -281 -277 -576 -273 -938 l1 -128 -76
-38 -76 -39 0 33 c0 19 -4 36 -9 39 -5 3 -87 -32 -182 -78 -266 -128 -517
-221 -824 -306 -256 -70 -753 -161 -806 -147 -10 3 -17 1 -13 -4 3 -5 -25 -9
-63 -8 l-68 0 90 20 c258 55 687 191 960 304 211 87 587 273 754 374 74 44
138 84 142 88 4 4 12 58 18 118 30 288 115 531 270 765 276 419 748 719 1275
809 143 25 203 31 416 40 l175 8 85 42 c146 75 277 157 520 329 270 191 458
328 601 438 80 61 154 116 164 121 14 8 27 4 60 -22 28 -21 63 -36 105 -44
l63 -12 33 32 34 33 67 -24 c169 -58 383 -166 535 -267 181 -121 390 -326 517
-509 32 -46 62 -80 66 -76 5 4 5 1 1 -6 -4 -6 1 -24 12 -40 61 -85 186 -380
231 -542 78 -284 96 -660 46 -952 -62 -358 -189 -669 -388 -948 -144 -202
-367 -430 -519 -533 l-37 -24 137 -110 c169 -135 351 -269 677 -498 98 -69
183 -152 211 -206 66 -132 46 -335 -51 -514 -46 -84 -154 -225 -206 -269 l-31
-26 1089 1 1088 1 -185 28 c-393 60 -749 111 -872 126 -32 3 -58 8 -58 10 0 2
16 61 35 131 181 659 335 1668 372 2441 12 250 9 1047 -5 1242 -20 271 -87
859 -109 947 -8 34 -138 101 -598 308 -301 136 -519 222 -825 327 -193 65
-559 178 -577 178 -4 0 9 -10 29 -23 215 -128 333 -215 484 -358 62 -57 142
-139 179 -181 37 -43 73 -78 80 -78 15 0 238 -92 505 -208 l205 -90 26 19
c107 76 259 0 259 -130 0 -54 -14 -87 -51 -120 l-31 -28 11 -94 c65 -568 78
-1405 32 -1974 -38 -456 -87 -859 -104 -848 -5 3 -6 -3 -2 -17 9 -28 -26 -251
-35 -224 -6 16 -8 14 -12 -8 -3 -15 -1 -25 3 -22 5 3 9 -8 9 -25 0 -16 -4 -32
-9 -35 -4 -3 -7 7 -5 22 l4 27 -9 -25 c-5 -14 -7 -50 -5 -80 2 -38 0 -50 -6
-40 -7 10 -8 2 -4 -27 5 -31 3 -43 -6 -43 -7 0 -10 -8 -7 -20 3 -11 1 -18 -3
-15 -12 7 -24 -60 -14 -76 4 -7 3 -10 -4 -5 -6 3 -13 -2 -16 -11 -3 -12 -5
-10 -4 7 1 78 -8 90 -22 28 -8 -31 -8 -30 -10 17 l-2 50 -14 -40 -14 -40 5 40
c4 22 8 58 10 80 l4 40 -11 -45 c-40 -166 -42 -156 -7 30 66 354 122 799 164
1315 22 263 30 930 16 1240 -12 253 -33 536 -52 700 l-11 90 -46 40 c-25 22
-49 39 -52 38 -3 -1 -6 10 -6 23 -4 53 -26 67 -285 177 -140 59 -257 107 -261
107 -4 0 11 -30 34 -67 172 -281 290 -626 333 -973 56 -457 -31 -970 -235
-1385 -76 -153 -167 -300 -239 -385 -26 -30 -68 -84 -93 -120 -25 -36 -100
-118 -166 -182 -143 -138 -221 -196 -116 -87 187 195 326 387 439 609 179 353
266 701 278 1115 13 408 -87 850 -269 1193 -122 231 -238 394 -394 555 -138
143 -240 229 -392 330 -157 105 -282 170 -454 237 l-21 9 32 108 33 107 63 17
c84 21 104 32 139 81 38 51 37 62 -1 78 -38 16 -29 24 44 38 85 17 148 52 277
157 234 189 448 441 538 634 30 63 36 88 37 143 0 65 -1 68 -40 108 -22 23
-52 48 -67 56 -39 20 -103 16 -174 -10z m116 -80 c-121 -43 -227 -109 -394
-244 -104 -85 -353 -334 -446 -447 -46 -55 -85 -102 -88 -105 -3 -3 7 18 23
45 72 127 231 326 364 453 190 182 433 322 561 322 l45 0 -65 -24z m-3215
-881 c0 -17 -7 -20 -47 -20 -42 -1 -48 2 -48 21 0 29 4 31 52 25 34 -5 43 -10
43 -26z m2371 -204 c-7 -10 -189 -55 -271 -66 -55 -8 -68 -15 -425 -228 -255
-152 -411 -248 -620 -379 -74 -47 -223 -136 -330 -198 -107 -62 -206 -120
-220 -128 -14 -8 0 7 30 34 86 76 200 187 197 191 -6 6 -276 -115 -365 -163
-103 -56 -218 -128 -251 -158 l-24 -21 12 23 c23 43 173 206 240 260 107 86
183 126 416 217 580 226 889 373 1146 546 l87 58 113 9 c158 13 271 14 265 3z
m-3348 -88 c35 -21 72 -42 81 -48 107 -64 238 -163 323 -246 57 -55 99 -99 93
-97 -5 2 -80 38 -165 80 -185 91 -342 159 -465 201 l-90 30 -100 -42 c-128
-55 -289 -150 -361 -214 l-55 -50 15 36 c16 40 67 119 99 155 11 12 16 22 10
22 -44 0 -765 -163 -912 -206 -63 -19 -116 -32 -118 -31 -2 2 54 31 124 65
171 81 497 183 838 262 146 33 568 118 594 119 13 1 53 -16 89 -36z m291 -459
c144 -30 246 -60 346 -104 69 -30 69 -31 25 -25 -25 4 -79 15 -120 26 -95 24
-410 127 -391 128 7 1 70 -11 140 -25z m-828 -170 c-38 -82 -81 -170 -95 -195
-15 -26 -44 -89 -65 -140 -38 -93 -183 -430 -286 -664 -29 -66 -84 -197 -123
-292 l-70 -172 96 78 c156 125 220 172 388 283 179 119 554 338 554 324 0 -2
-62 -49 -137 -104 -392 -286 -741 -610 -1112 -1036 l-26 -30 35 22 c93 59 297
165 405 212 66 28 132 58 148 66 36 20 35 4 -1 -17 -141 -80 -566 -433 -620
-515 -36 -54 -158 -299 -222 -447 l-43 -98 -69 -35 c-39 -19 -72 -34 -74 -32
-10 11 133 369 227 566 l68 142 -27 0 c-53 0 -53 12 -3 90 26 41 59 95 74 120
l26 45 -267 -3 -267 -3 -600 -597 c-329 -328 -588 -584 -575 -567 14 16 32 37
40 45 48 49 65 73 47 67 -11 -4 -16 -3 -12 4 4 6 13 8 20 5 7 -2 28 12 46 32
l34 37 -32 -29 c-34 -31 -56 -30 -32 1 13 16 12 17 -3 4 -27 -21 -21 -1 9 33
24 27 23 26 -9 -3 -21 -19 -34 -38 -28 -41 5 -3 1 -13 -10 -23 -11 -9 -20 -12
-20 -6 0 5 -4 7 -10 4 -43 -26 59 79 548 568 l557 557 250 0 c297 0 351 5 358
31 3 11 1 17 -4 13 -5 -3 -9 1 -9 9 0 8 -7 17 -15 20 -13 6 -63 91 -54 93 2 0
-2 8 -9 17 -8 9 -11 21 -7 27 3 5 0 10 -7 10 -9 0 -9 3 2 10 10 6 -83 10 -273
10 l-289 0 -510 -507 c-281 -280 -515 -507 -522 -505 -6 2 -8 0 -3 -4 4 -4
-17 -33 -47 -63 -54 -55 -55 -57 -59 -121 l-4 -65 1 73 c1 39 0 72 -1 72 -12
0 -32 -14 -28 -20 3 -5 1 -11 -5 -15 -5 -3 -10 1 -10 10 0 11 -5 15 -15 11
-10 -4 -15 1 -15 15 0 11 5 17 10 14 16 -10 24 25 10 38 -10 10 -12 8 -7 -5 4
-10 2 -18 -4 -18 -7 0 -10 17 -8 44 2 24 1 42 -3 40 -3 -2 -9 2 -12 8 -3 7 -3
3 0 -9 3 -13 1 -23 -5 -23 -7 0 -11 34 -11 95 0 57 4 95 10 95 6 0 10 -10 10
-22 0 -19 2 -20 10 -8 9 13 10 13 11 0 0 -8 4 -4 8 10 7 22 9 20 16 -20 5 -25
10 -48 11 -52 1 -5 3 -18 4 -30 2 -17 4 -14 10 12 7 33 7 31 9 -17 1 -50 11
-66 26 -43 4 6 11 8 16 4 5 -3 8 0 7 8 -2 7 3 12 9 11 7 -2 12 3 10 10 -1 6 5
11 13 9 8 -2 12 0 7 4 -9 10 23 45 35 38 4 -3 7 0 6 8 -2 7 3 12 9 11 7 -2 12
3 10 10 -1 6 4 11 11 9 8 -1 11 2 8 6 -7 11 28 44 37 37 4 -3 5 -2 2 2 -8 11
27 43 39 36 6 -3 7 -2 3 2 -4 5 191 208 435 452 l443 443 296 0 296 0 18 38
c29 59 69 85 136 90 45 3 59 1 59 -9 0 -11 2 -11 10 1 7 11 10 11 10 2 0 -7 5
-10 11 -6 8 4 9 -1 5 -17 -6 -23 -6 -23 6 1 47 100 77 174 73 178 -3 3 -5 1
-5 -5 0 -5 -13 -8 -30 -5 -16 2 -30 8 -30 12 0 5 -3 15 -6 24 -4 11 -1 16 11
16 9 0 13 5 10 10 -4 6 -3 10 2 9 22 -4 43 2 38 11 -9 14 4 12 19 -3 7 -7 11
-19 9 -27 -3 -10 0 -9 7 3 6 9 9 21 6 26 -3 5 0 11 7 14 6 2 18 22 26 43 8 22
26 66 41 99 15 33 57 132 95 220 37 88 83 194 103 235 62 134 64 138 44 134
-107 -22 -325 -55 -330 -49 -3 3 -5 40 -3 82 3 75 3 76 -21 70 -242 -59 -492
-54 -763 18 -118 31 -341 113 -356 131 -17 20 6 19 242 -17 359 -53 622 -50
918 11 52 11 96 18 98 16 3 -2 9 -36 15 -75 6 -40 15 -71 22 -71 6 1 88 15
183 33 l172 32 63 86 c100 137 153 206 155 204 2 -1 -28 -69 -66 -151z m1374
-115 c66 -10 136 -19 155 -19 35 -1 35 -1 10 -14 -25 -13 -152 -47 -421 -110
-168 -40 -373 -114 -541 -195 -64 -31 -112 -50 -105 -43 24 29 191 164 260
210 91 62 254 144 349 177 80 27 85 27 293 -6z m-3064 -168 c46 -16 92 -32
103 -36 13 -6 -10 -18 -90 -45 -169 -58 -388 -144 -634 -249 -213 -91 -224
-98 -232 -127 -7 -28 -69 -96 -96 -105 -11 -4 -42 -267 -62 -514 -15 -203 -30
-553 -32 -787 l-2 -213 -6 190 c-5 168 -11 152 -12 -35 0 -61 -6 -72 -29 -60
-11 7 -16 16 -12 27 4 10 2 14 -4 10 -5 -3 -8 -27 -7 -52 1 -25 -1 -45 -5 -45
-7 0 -10 55 -13 238 -1 61 -6 112 -10 112 -5 0 -7 -110 -6 -245 2 -135 0 -245
-4 -245 -12 0 -9 623 3 874 6 121 21 340 33 486 l23 265 -33 36 c-58 66 -57
143 2 209 58 64 135 75 210 29 l31 -19 76 35 c127 58 693 292 713 294 5 1 48
-12 95 -28z m893 -269 c56 -33 88 -105 72 -166 -10 -40 -64 -95 -106 -107 -57
-17 -105 -4 -158 44 -25 23 -42 36 -37 28 5 -9 3 -12 -6 -9 -8 3 -40 -19 -72
-49 l-58 -53 -192 0 -192 0 -217 -217 -217 -218 9 -40 c19 -83 -27 -161 -109
-186 -58 -17 -113 2 -155 54 -25 32 -30 47 -30 92 0 59 17 91 68 129 22 17 42
21 96 21 l69 0 229 228 228 227 194 0 193 0 59 56 c36 35 64 54 73 50 10 -4
22 9 39 42 13 26 33 55 45 66 41 37 117 41 175 8z m6073 -204 c-3 -7 -5 -2 -5
12 0 14 2 19 5 13 2 -7 2 -19 0 -25z m40 -5 c-3 -10 -5 -4 -5 12 0 17 2 24 5
18 2 -7 2 -21 0 -30z m60 -5 c-3 -7 -5 -2 -5 12 0 14 2 19 5 13 2 -7 2 -19 0
-25z m-80 -155 c-3 -10 -5 -4 -5 12 0 17 2 24 5 18 2 -7 2 -21 0 -30z m80 0
c-3 -10 -5 -4 -5 12 0 17 2 24 5 18 2 -7 2 -21 0 -30z m-2270 -19 c131 -29
287 -129 369 -237 190 -251 191 -600 2 -845 -89 -115 -242 -214 -385 -248 -84
-20 -229 -22 -303 -5 -298 72 -510 324 -527 627 -8 140 7 217 68 342 41 84 64
117 122 176 178 179 405 245 654 190z m-4059 -161 l3 -53 -60 0 -61 0 0 48 c0
27 3 52 7 56 4 4 30 6 58 4 l50 -3 3 -52z m-398 -3 l0 -50 -55 0 -55 0 0 50 0
50 55 0 55 0 0 -50z m186 26 c3 -13 4 -35 2 -47 -3 -21 -9 -24 -50 -27 l-48
-3 0 50 0 51 45 0 c39 0 45 -3 51 -24z m2940 -36 c66 -5 174 -21 240 -35 65
-13 129 -25 142 -25 l22 0 -24 -48 c-45 -89 -67 -195 -73 -347 -4 -103 -1
-158 10 -210 19 -90 56 -187 68 -180 5 4 6 -1 3 -9 -6 -16 3 -36 53 -115 19
-30 38 -49 41 -44 4 7 15 0 26 -16 l20 -26 -22 19 c-32 28 -27 4 6 -27 16 -15
32 -24 36 -20 4 5 6 1 4 -7 -2 -8 3 -14 9 -13 7 2 12 -3 10 -10 -1 -7 6 -11
18 -9 14 2 16 0 7 -6 -9 -6 -7 -13 10 -28 186 -164 483 -240 731 -189 82 17
212 65 274 101 67 39 61 28 -13 -25 -72 -51 -149 -111 -350 -272 -131 -105
-663 -507 -844 -639 l-115 -83 85 89 c160 167 408 459 399 469 -2 2 -56 -35
-119 -82 -183 -134 -612 -432 -822 -570 -368 -241 -909 -560 -930 -547 -7 5
-8 3 -3 -6 6 -10 4 -12 -9 -7 -10 4 -15 3 -11 -3 7 -11 -32 -33 -45 -25 -6 4
-9 1 -8 -5 4 -14 -181 -92 -200 -85 -8 3 -10 0 -6 -7 5 -8 2 -9 -10 -5 -9 4
-15 3 -12 -2 7 -11 -22 -23 -36 -14 -6 3 -8 2 -5 -3 8 -13 -119 -68 -134 -58
-7 4 -9 3 -6 -3 9 -14 -98 -57 -114 -47 -7 4 -9 3 -6 -3 8 -13 -217 -98 -234
-88 -7 5 -10 4 -5 -3 6 -11 -180 -79 -190 -69 -3 3 8 8 25 12 17 4 31 11 31
15 0 5 -7 6 -17 3 -10 -4 -14 -2 -10 4 4 7 -11 10 -43 9 -54 -2 -61 1 -31 12
19 7 18 8 -5 19 -13 6 -22 8 -20 4 3 -4 -4 -7 -15 -7 -10 0 -19 4 -19 8 0 8
10 13 78 39 20 7 29 15 22 19 -9 6 58 35 130 57 13 4 13 4 0 -7 -13 -10 -12
-11 3 -6 10 3 24 6 30 6 8 0 7 3 -1 9 -10 6 -5 11 19 20 40 14 48 14 29 0 -12
-9 -11 -10 5 -4 10 3 38 9 62 12 43 6 53 15 31 29 -6 4 -8 3 -5 -3 4 -6 -7
-10 -26 -11 -29 0 -26 2 23 22 l55 23 -4 114 -3 115 66 28 c62 27 66 30 67 62
1 19 2 40 3 47 1 9 34 13 119 15 l117 3 0 -77 c0 -43 3 -75 6 -72 3 3 6 20 6
37 1 26 3 29 16 18 13 -10 15 -9 10 9 -3 12 -2 28 3 35 5 9 9 -21 9 -73 0 -49
3 -88 6 -88 35 0 307 138 620 316 139 78 475 292 631 400 l116 82 -2 77 c-2
56 1 80 11 86 7 5 41 9 76 9 l62 0 0 -35 c0 -34 1 -34 20 -18 19 16 19 18 3
25 -11 4 -13 7 -4 7 10 1 11 4 2 15 -6 7 -9 22 -5 32 5 18 5 18 -6 2 -6 -10
-18 -18 -25 -18 -18 0 -20 16 -2 24 6 3 3 4 -8 3 -11 -2 -19 -9 -17 -16 1 -7
-5 -11 -15 -9 -10 2 -17 9 -16 16 2 6 -3 9 -10 6 -22 -8 -17 35 6 51 16 11 23
12 30 2 6 -8 7 -7 4 5 -8 23 69 74 88 58 9 -8 15 -8 20 0 3 5 -2 10 -12 10
-13 0 -9 7 17 28 101 79 66 59 -85 -49 -206 -148 -690 -475 -762 -515 -32 -18
-53 -36 -55 -49 -2 -12 -11 -21 -23 -22 -11 -1 -36 -5 -56 -8 l-37 -7 -5 43
c-4 36 -1 47 17 61 11 10 28 24 36 32 8 7 88 61 176 118 89 58 164 110 168
116 3 6 -1 28 -11 49 -10 21 -18 39 -18 40 -1 2 -17 -2 -36 -7 -31 -9 -32 -8
-15 5 23 17 14 20 -15 4 -11 -5 -16 -15 -13 -21 4 -7 3 -8 -4 -4 -6 4 -59 -25
-117 -64 -115 -77 -482 -290 -720 -418 -158 -84 -396 -195 -608 -282 -148 -61
-177 -62 -177 -5 0 34 -7 40 -38 36 -8 -1 -16 6 -18 16 -3 11 -15 19 -27 20
-12 0 -16 -1 -9 -4 6 -3 10 -9 6 -14 -3 -5 -14 -4 -26 2 -17 9 -18 13 -7 20
10 6 7 9 -10 9 -34 0 -16 14 43 33 44 15 47 15 35 0 -13 -15 -11 -16 16 -9 17
4 44 17 60 28 24 16 26 19 8 14 -13 -3 -33 -8 -45 -11 -21 -5 -21 -5 -3 4 11
5 70 29 130 54 156 64 286 127 281 136 -3 4 10 22 28 40 26 26 46 34 94 41 56
8 120 34 227 95 165 93 275 158 275 163 0 3 -3 2 -7 -1 -3 -4 -13 -1 -21 6
-13 10 -14 9 -7 -2 5 -9 4 -12 -3 -7 -6 3 -8 23 -6 46 3 24 1 40 -6 40 -5 0
-9 6 -8 13 2 7 -6 11 -22 10 l-25 -3 25 21 c14 12 -4 5 -40 -15 -312 -173
-730 -375 -777 -377 -15 0 -22 -3 -15 -6 6 -2 12 -20 12 -39 0 -33 -1 -34 -40
-34 -39 0 -40 1 -40 35 0 29 4 36 26 41 18 5 22 9 13 15 -7 4 -16 6 -20 3 -4
-2 -2 7 4 20 7 13 15 22 18 20 4 -2 9 0 11 5 1 5 104 62 228 126 124 64 229
120 233 124 4 5 -6 14 -22 21 -31 12 -36 26 -43 105 -2 17 -5 29 -8 29 -3 -1
-133 -65 -290 -143 -283 -140 -284 -141 -232 -141 l52 0 0 -59 c0 -58 0 -59
-32 -63 -18 -3 -44 -2 -58 2 -23 6 -25 11 -24 63 1 32 0 57 -1 57 -1 0 -78
-29 -171 -63 -334 -126 -499 -176 -784 -241 -67 -15 -161 -15 -159 0 0 5 -9
11 -21 14 -19 4 -19 7 -7 24 10 14 27 19 60 20 25 1 41 4 35 7 -5 4 3 9 19 13
94 23 383 114 505 160 593 224 1142 505 1739 888 278 179 707 492 889 649 30
26 66 57 80 68 l25 21 -26 -9 c-15 -5 -78 -35 -140 -67 -141 -70 -431 -205
-435 -201 -1 1 36 29 84 62 168 116 645 480 725 553 20 19 24 28 15 35 -9 5
-6 7 7 3 12 -3 31 4 48 18 l28 23 -73 16 c-279 61 -631 45 -885 -40 -180 -60
-356 -152 -476 -249 -37 -30 -72 -52 -78 -49 -5 4 -8 1 -7 -7 2 -7 -3 -12 -9
-11 -7 2 -12 -3 -10 -10 1 -6 -4 -11 -11 -9 -8 1 -11 -1 -8 -6 3 -5 -16 -29
-42 -53 -26 -24 -36 -32 -23 -16 21 23 22 27 7 27 -10 0 -14 5 -10 12 4 7 3 8
-4 4 -6 -4 -9 -13 -5 -21 3 -8 -1 -15 -8 -15 -7 0 -9 3 -6 7 4 3 2 12 -5 20
-9 11 -14 11 -32 -3 -12 -9 27 31 86 89 282 277 663 437 1098 460 30 2 66 4
80 5 14 1 79 -3 146 -8z m3631 -112 c-3 -8 -6 -5 -6 6 -1 11 2 17 5 13 3 -3 4
-12 1 -19z m-5028 -538 c-18 -22 -34 -40 -37 -40 -5 0 12 24 42 58 33 37 29
25 -5 -18z m-2659 -7 c0 -84 -14 -194 -22 -179 -5 9 -6 21 -2 28 4 6 3 8 -3 5
-6 -4 -16 0 -23 8 -7 8 -27 15 -44 15 -21 0 -27 3 -17 9 7 5 11 13 7 19 -3 6
-2 29 3 51 6 29 6 41 -3 42 -15 1 64 27 87 28 12 1 17 -7 17 -26z m2570 -123
c-6 -11 -13 -20 -16 -20 -2 0 0 9 6 20 6 11 13 20 16 20 2 0 0 -9 -6 -20z
m1930 -153 c0 -7 10 -24 22 -37 12 -12 16 -21 9 -19 -17 6 -55 69 -42 69 6 0
11 -6 11 -13z m-3597 -131 c85 -36 117 -143 67 -223 -33 -51 -123 -77 -187
-52 -27 10 -32 6 -155 -121 -70 -73 -131 -129 -136 -126 -5 3 -24 -11 -43 -32
l-34 -37 40 35 c21 19 7 0 -33 -43 l-72 -77 0 -75 c0 -71 -1 -75 -22 -74 -17
1 -19 2 -5 6 9 2 17 8 17 13 0 5 -7 7 -15 4 -12 -5 -14 4 -14 45 2 58 9 59 19
4 7 -34 8 -32 9 23 1 47 5 65 21 79 16 14 17 20 8 26 -10 6 -7 13 10 29 25 23
31 40 7 20 -11 -9 -15 -9 -15 -1 0 7 -5 9 -11 5 -8 -5 -8 -8 0 -14 9 -5 8 -10
-3 -19 -8 -7 -12 -19 -9 -27 3 -8 1 -14 -5 -14 -11 0 -10 25 1 36 4 4 7 12 7
18 0 5 -15 -3 -32 -20 -58 -52 -26 -18 178 188 l202 203 -6 59 c-6 74 14 117
72 151 46 28 91 31 139 11z m3811 -115 c-3 -3 -15 6 -27 18 l-22 24 27 -19
c14 -10 24 -21 22 -23z m1122 -32 c20 -85 44 -218 44 -247 0 -13 -4 -20 -10
-17 -5 3 -10 1 -10 -4 0 -21 -41 -11 -50 12 -8 20 -9 21 -10 2 -1 -11 -8 14
-15 55 -8 41 -23 104 -34 140 -18 56 -18 66 -6 73 8 4 27 19 43 32 15 13 28
22 30 20 2 -2 10 -32 18 -66z m-6289 -61 c-3 -8 -6 -5 -6 6 -1 11 2 17 5 13 3
-3 4 -12 1 -19z m-100 -235 c-2 -21 -4 -4 -4 37 0 41 2 58 4 38 2 -21 2 -55 0
-75z m6440 -45 c-2 -13 -4 -3 -4 22 0 25 2 35 4 23 2 -13 2 -33 0 -45z m-80 0
c-2 -13 -4 -5 -4 17 -1 22 1 32 4 23 2 -10 2 -28 0 -40z m37 40 c-3 -4 -9 -8
-15 -8 -5 0 -9 4 -9 8 0 5 7 9 15 9 8 0 12 -4 9 -9z m-6765 -173 c1 -85 26
-370 46 -531 8 -65 13 -120 11 -122 -7 -7 -60 26 -103 63 -26 22 -55 62 -75
103 -30 62 -32 75 -32 167 -1 117 18 186 90 341 42 88 48 96 54 74 5 -14 8
-56 9 -95z m8576 85 c-17 -18 -17 -21 -1 -45 9 -14 12 -25 7 -25 -6 0 -15 8
-20 18 -10 16 -12 16 -25 0 -20 -27 -29 -21 -10 7 14 21 14 28 3 43 -13 16
-13 16 5 2 17 -13 20 -13 30 3 6 9 15 17 20 17 5 0 1 -9 -9 -20z m-8198 -72
c-2 -13 -4 -3 -4 22 0 25 2 35 4 23 2 -13 2 -33 0 -45z m8201 -196 c2 -28 0
-42 -7 -38 -6 4 -8 13 -4 21 3 10 -1 15 -15 15 -28 0 -36 -16 -15 -29 16 -9
16 -10 1 -11 -9 0 -20 5 -23 10 -9 15 14 40 36 40 26 0 24 19 -3 30 -23 10
-23 10 2 7 22 -2 25 -7 28 -45z m-146 2 c-4 -35 -3 -37 21 -32 15 3 24 1 21
-3 -3 -5 -14 -9 -24 -9 -11 0 -20 -9 -23 -22 -2 -13 -5 5 -6 40 0 34 3 62 7
62 4 0 6 -16 4 -36z m56 0 c-3 -14 -5 -12 -10 9 -3 19 -2 25 4 19 6 -6 8 -18
6 -28z m-7271 4 c-3 -8 -6 -5 -6 6 -1 11 2 17 5 13 3 -3 4 -12 1 -19z m3803 2
c0 -5 -5 -10 -11 -10 -5 0 -7 5 -4 10 3 6 8 10 11 10 2 0 4 -4 4 -10z m3597
-12 c-3 -8 -6 -5 -6 6 -1 11 2 17 5 13 3 -3 4 -12 1 -19z m-1807 -50 c-6 -29
-28 -105 -48 -168 -35 -109 -37 -122 -37 -251 l0 -136 -55 43 c-129 102 -234
190 -237 200 -2 6 78 87 178 180 100 93 187 174 193 180 18 19 19 9 6 -48z
m-1795 39 c17 -13 16 -14 -14 -20 l-32 -7 3 -85 c2 -47 0 -85 -3 -85 -3 0 -11
19 -18 43 -7 23 -20 50 -29 60 -14 16 -14 19 -2 27 13 8 12 10 -2 10 -9 0 -18
-6 -21 -12 -2 -7 -7 -10 -11 -7 -5 5 90 86 105 88 3 1 13 -5 24 -12z m3416
-193 c0 -31 -3 -59 -6 -62 -3 -3 -5 25 -5 63 0 38 3 66 6 62 3 -3 6 -31 5 -63z
m-51 22 c0 -2 -11 -6 -25 -8 -13 -3 -22 -1 -19 3 5 9 44 13 44 5z m106 -20 c3
-13 4 -35 1 -47 -3 -16 -5 -12 -6 13 -1 24 -7 41 -18 47 -17 10 -17 10 -1 11
10 0 20 -10 24 -24z m74 20 c0 -2 -9 -6 -20 -9 -11 -3 -18 -1 -14 4 5 9 34 13
34 5z m17 -38 c-3 -7 -5 -2 -5 12 0 14 2 19 5 13 2 -7 2 -19 0 -25z m-217 -39
c21 -6 22 -7 5 -8 -27 -1 -45 17 -44 44 1 17 2 16 8 -5 4 -14 17 -27 31 -31z
m182 33 c-31 -5 -22 -25 14 -33 28 -6 28 -7 4 -8 -29 -1 -50 15 -50 40 0 12 6
15 28 10 25 -5 26 -6 4 -9z m-257 -18 c0 -13 -8 -19 -25 -21 -22 -1 -22 -1 -2
4 25 5 28 13 10 32 -11 11 -10 13 2 9 8 -3 15 -13 15 -24z m-7358 -60 c-3 -3
-12 -4 -19 -1 -8 3 -5 6 6 6 11 1 17 -2 13 -5z m7243 -130 c0 -8 -5 -12 -10
-9 -6 4 -8 11 -5 16 9 14 15 11 15 -7z m-4000 -39 c0 -36 -29 -63 -52 -49 -6
4 -8 3 -5 -3 3 -5 -9 -17 -28 -26 l-34 -16 9 24 c6 17 6 25 -1 25 -6 0 -9 4
-7 10 4 14 101 78 111 73 4 -2 7 -20 7 -38z m2270 -91 c52 -44 156 -129 230
-189 74 -60 162 -132 195 -161 189 -161 549 -439 790 -609 77 -54 150 -106
162 -116 l23 -17 -68 -40 c-85 -51 -207 -155 -270 -231 l-49 -59 -225 217
c-198 191 -415 397 -618 587 -75 69 -293 252 -330 277 -28 18 -235 81 -262 79
-9 0 -24 8 -34 19 -17 19 -14 22 97 127 236 224 233 221 249 209 8 -7 58 -48
110 -93z m-6692 89 c-16 -2 -40 -2 -55 0 -16 2 -3 4 27 4 30 0 43 -2 28 -4z
m8422 -19 c0 -8 -5 -12 -10 -9 -6 4 -8 11 -5 16 9 14 15 11 15 -7z m-8430 -8
c0 -3 -4 -8 -10 -11 -5 -3 -10 -1 -10 4 0 6 5 11 10 11 6 0 10 -2 10 -4z
m4303 -20 c3 -8 -2 -20 -11 -27 -14 -11 -15 -11 -5 0 6 7 9 20 6 27 -3 8 -3
14 0 14 3 0 7 -6 10 -14z m-2478 -6 c3 -5 1 -10 -4 -10 -6 0 -11 5 -11 10 0 6
2 10 4 10 3 0 8 -4 11 -10z m2490 -135 l0 -80 -71 -3 -71 -3 -6 53 c-4 29 -7
68 -7 86 l0 33 78 -3 77 -3 0 -80z m-1992 49 l37 -7 0 -82 c0 -97 2 -95 -106
-95 l-74 0 0 95 0 95 53 0 c28 0 69 -3 90 -6z m5926 -63 l-24 -19 24 -26 c14
-14 19 -26 13 -26 -6 0 -16 9 -22 20 -14 26 -28 25 -33 -2 -3 -16 -5 -13 -6
10 0 18 3 31 8 28 4 -3 16 3 26 14 10 11 22 20 28 20 5 0 -1 -9 -14 -19z m114
2 c-10 -29 -24 -43 -44 -43 -11 0 -19 -4 -19 -10 0 -5 13 -10 29 -10 17 0 33
-5 36 -10 11 -18 -17 -41 -44 -38 -24 3 -26 7 -26 49 0 42 1 45 17 35 13 -8
21 -7 29 1 16 16 1 36 -22 30 -11 -3 -17 -1 -13 4 3 5 18 9 34 9 24 0 28 -3
23 -17z m94 -3 c4 -13 3 -13 -6 0 -16 23 -45 0 -52 -41 -6 -32 -6 -32 -8 11
-1 45 0 46 31 45 19 0 33 -6 35 -15z m93 4 c17 -20 2 -67 -23 -72 -24 -5 -47
16 -47 42 0 42 45 61 70 30z m50 -58 c14 -15 38 12 43 47 3 25 4 22 5 -13 2
-45 2 -46 -30 -45 -32 0 -33 1 -34 45 -1 35 0 37 3 10 2 -19 8 -39 13 -44z
m91 26 c-4 -54 -11 -53 -11 3 0 27 3 45 7 41 4 -4 6 -24 4 -44z m44 38 c3 -6
-1 -7 -9 -4 -18 7 -21 14 -7 14 6 0 13 -4 16 -10z m-4609 -24 c16 9 25 13 19
7 -11 -12 -133 -83 -143 -83 -3 0 3 7 14 15 16 12 16 14 3 15 -9 0 -22 -6 -28
-14 -6 -8 -21 -16 -32 -19 -16 -4 -18 -3 -9 8 7 8 17 13 23 12 7 -1 11 4 10
11 -2 6 2 12 8 12 6 0 17 7 25 15 11 11 20 12 34 5 28 -15 49 -12 28 4 -10 7
-15 16 -11 19 3 4 11 -1 18 -9 11 -15 14 -15 41 2z m4651 -28 c-3 -7 -5 -2 -5
12 0 14 2 19 5 13 2 -7 2 -19 0 -25z m-6037 -108 l0 -110 -85 -1 c-47 -1 -93
-2 -102 -3 -19 -1 -19 -3 -14 172 l1 52 100 0 100 0 0 -110z m-2533 18 c-2
-18 -4 -6 -4 27 0 33 2 48 4 33 2 -15 2 -42 0 -60z m483 -3 l0 -55 -55 0 -55
0 0 55 0 55 55 0 55 0 0 -55z m1167 -7 c-2 -13 -4 -5 -4 17 -1 22 1 32 4 23 2
-10 2 -28 0 -40z m1233 -68 l0 -81 -77 3 -78 3 -3 78 -3 77 81 0 80 0 0 -80z
m3335 -65 c99 -83 229 -201 250 -226 11 -13 -3 -3 -30 22 -28 25 -113 100
-190 166 -77 66 -149 131 -160 144 -11 13 0 6 25 -16 25 -22 73 -62 105 -90z
m-6252 98 c-13 -2 -35 -2 -50 0 -16 2 -5 4 22 4 28 0 40 -2 28 -4z m1051 -50
c-1 -21 -3 -66 -3 -100 l-1 -63 -95 0 -95 0 -1 53 c-1 28 -2 73 -4 100 l-3 47
103 0 102 0 -3 -37z m7019 6 c22 -2 22 -2 0 -6 -18 -3 -23 -11 -23 -34 0 -21
6 -32 23 -39 22 -9 22 -9 1 -9 -23 -1 -34 16 -34 55 0 13 -6 24 -12 25 -10 0
-10 2 0 6 6 2 13 12 13 21 1 15 2 15 6 0 2 -10 14 -19 26 -19z m-1997 -113
c71 -63 156 -139 189 -169 l60 -55 -60 20 c-139 46 -308 39 -562 -25 -95 -24
-173 -42 -173 -41 0 6 405 384 411 384 4 0 64 -51 135 -114z m1691 52 c-2 -13
-4 -3 -4 22 0 25 2 35 4 23 2 -13 2 -33 0 -45z m130 42 c3 -10 2 -11 -4 -4 -4
7 -17 14 -28 17 -16 5 -15 5 4 4 14 -1 26 -9 28 -17z m43 -35 l-8 -40 -1 50
c-1 29 3 45 8 40 5 -6 6 -28 1 -50z m56 5 c1 -34 0 -36 -3 -10 -2 19 -12 41
-21 48 -16 13 -15 14 3 10 16 -3 20 -12 21 -48z m257 40 c-30 -12 -29 -18 3
-30 16 -7 24 -16 22 -27 -4 -20 -35 -30 -50 -15 -6 6 0 8 16 5 33 -7 33 10 0
32 -20 13 -23 19 -13 31 6 8 19 14 28 13 11 0 9 -3 -6 -9z m83 -33 l12 -32 16
38 c25 56 29 44 5 -15 -23 -58 -36 -78 -52 -78 -6 0 -2 6 8 14 19 14 17 29
-12 106 -3 8 -2 11 3 7 5 -5 14 -23 20 -40z m84 -12 l-8 -40 -1 50 c-1 29 3
45 8 40 5 -6 6 -28 1 -50z m56 5 c1 -34 0 -36 -3 -10 -2 19 -12 41 -21 48 -16
13 -15 14 3 10 16 -3 20 -12 21 -48z m82 43 c-10 -2 -28 -2 -40 0 -13 2 -5 4
17 4 22 1 32 -1 23 -4z m-721 -50 c-3 -10 -5 -4 -5 12 0 17 2 24 5 18 2 -7 2
-21 0 -30z m-6179 -45 l3 -56 -58 -7 c-32 -3 -77 -8 -100 -11 l-43 -5 0 64 c0
35 2 66 5 69 3 2 47 4 98 4 l92 -1 3 -57z m6515 55 c-7 -2 -21 -2 -30 0 -10 3
-4 5 12 5 17 0 24 -2 18 -5z m387 -36 c11 -5 9 -6 -4 -4 -11 1 -21 9 -23 17
-3 10 -2 11 4 4 4 -6 15 -14 23 -17z m-683 -3 c-3 -3 -12 -4 -19 -1 -8 3 -5 6
6 6 11 1 17 -2 13 -5z m-7617 -73 l0 -59 -32 -3 c-18 -2 -45 -3 -60 -1 -27 3
-28 5 -28 63 l0 59 60 0 60 0 0 -59z m1954 -22 c3 -40 5 -73 4 -74 -2 -1 -40
-5 -85 -8 l-83 -6 0 79 0 80 79 0 78 0 7 -71z m2194 -57 c53 -27 123 -59 155
-72 79 -31 66 -35 -19 -6 -68 24 -91 25 -78 4 4 -7 2 -8 -5 -4 -6 4 -9 12 -6
17 4 5 -1 9 -10 9 -10 0 -13 5 -9 13 4 6 4 9 -1 5 -4 -4 -19 -1 -34 6 -14 7
-32 11 -40 8 -10 -3 -12 0 -8 11 4 11 0 13 -15 9 -14 -3 -19 -1 -14 6 4 7 3
12 -1 12 -5 0 -14 -10 -22 -21 -11 -18 -11 -23 1 -30 22 -15 33 -10 12 6 -17
13 -17 14 -1 15 9 0 17 -3 17 -8 0 -4 10 -12 23 -17 12 -6 21 -17 19 -27 -2
-15 31 -35 51 -30 4 1 7 -2 7 -6 0 -5 22 -19 50 -32 27 -13 48 -25 46 -27 -5
-5 -152 65 -224 107 -29 17 -50 35 -47 41 4 5 11 6 17 3 7 -4 8 -2 4 5 -6 9
-11 9 -22 0 -10 -8 -18 -9 -25 -2 -13 13 35 53 63 53 10 0 62 -22 116 -48z
m3665 7 c22 -2 22 -2 0 -6 -17 -3 -23 -12 -24 -31 l-2 -27 -4 25 c-3 14 -10
28 -17 32 -8 6 -8 8 2 8 6 0 13 8 13 18 1 16 2 16 6 0 2 -10 14 -19 26 -19z
m-6806 -112 c-2 -23 -3 -1 -3 48 0 50 1 68 3 42 2 -26 2 -67 0 -90z m-639 71
l-3 -53 -52 -3 -53 -3 0 55 0 56 56 0 55 0 -3 -52z m8359 20 c-3 -7 -5 -2 -5
12 0 14 2 19 5 13 2 -7 2 -19 0 -25z m-700 2 c4 -13 3 -13 -6 0 -16 23 -45 0
-52 -41 -6 -32 -6 -32 -8 11 -1 45 0 46 31 45 19 0 33 -6 35 -15z m93 1 c15
-29 13 -31 -25 -31 -26 0 -33 -4 -29 -14 3 -8 18 -17 32 -19 l27 -4 -28 -2
c-35 -1 -56 36 -37 65 10 16 11 17 6 2 -4 -14 1 -18 24 -18 21 0 28 4 24 14
-3 8 -13 17 -22 19 -15 4 -15 5 0 6 10 0 22 -8 28 -18z m40 -36 l-8 -40 -1 50
c-1 29 3 45 8 40 5 -6 6 -28 1 -50z m56 31 c3 -13 4 -35 1 -47 -3 -16 -5 -12
-6 13 -1 24 -7 41 -18 47 -17 10 -17 10 -1 11 10 0 20 -10 24 -24z m-4063 -35
c-4 -3 -11 -10 -15 -15 -4 -4 -6 1 -5 12 1 12 6 18 15 15 7 -3 10 -9 5 -12z
m3760 12 c-7 -2 -21 -2 -30 0 -10 3 -4 5 12 5 17 0 24 -2 18 -5z m-6075 -125
l-3 -123 -103 -2 c-153 -2 -142 -12 -142 128 l0 119 125 0 126 0 -3 -122z
m5983 84 c-7 -2 -18 1 -23 6 -8 8 -4 9 13 5 13 -4 18 -8 10 -11z m-5433 -65
l3 -68 -63 3 -63 3 -3 68 -3 68 63 -3 63 -3 3 -68z m4151 -177 c102 -103 165
-170 161 -170 -3 0 -97 93 -210 207 -113 115 -160 165 -105 113 54 -52 124
-120 154 -150z m-2064 190 c13 -5 14 -9 5 -9 -8 0 -24 4 -35 9 -13 5 -14 9 -5
9 8 0 24 -4 35 -9z m125 -31 c68 -15 148 -22 283 -26 103 -3 187 -10 187 -15
0 -18 -318 -2 -429 22 -91 19 -157 38 -141 39 3 1 48 -9 100 -20z m-200 -39
c145 -49 354 -83 517 -84 79 -1 143 -5 143 -10 0 -19 -319 2 -450 29 -122 25
-286 75 -319 96 -18 12 -27 14 109 -31z m-3510 -45 l0 -65 -65 0 -65 0 0 65 0
65 65 0 65 0 0 -65z m1750 45 c-8 -5 -22 -9 -30 -9 -10 0 -8 3 5 9 27 12 43
12 25 0z m6047 -12 c-3 -8 -6 -5 -6 6 -1 11 2 17 5 13 3 -3 4 -12 1 -19z
m-3630 -45 c-3 -10 -5 -4 -5 12 0 17 2 24 5 18 2 -7 2 -21 0 -30z m-2517 -13
c0 -5 -2 -10 -4 -10 -3 0 -8 5 -11 10 -3 6 -1 10 4 10 6 0 11 -4 11 -10z
m6137 -12 c-3 -8 -6 -5 -6 6 -1 11 2 17 5 13 3 -3 4 -12 1 -19z m-120 -20 c-3
-8 -6 -5 -6 6 -1 11 2 17 5 13 3 -3 4 -12 1 -19z m93 -5 c0 -5 -5 -15 -10 -23
-8 -12 -10 -11 -10 8 0 12 5 22 10 22 6 0 10 -3 10 -7z m17 -15 c-3 -8 -6 -5
-6 6 -1 11 2 17 5 13 3 -3 4 -12 1 -19z m-120 -30 c-3 -8 -6 -5 -6 6 -1 11 2
17 5 13 3 -3 4 -12 1 -19z m-6544 -35 c-7 -2 -19 -2 -25 0 -7 3 -2 5 12 5 14
0 19 -2 13 -5z m6534 -25 c-3 -7 -5 -2 -5 12 0 14 2 19 5 13 2 -7 2 -19 0 -25z
m110 -20 c-3 -7 -5 -2 -5 12 0 14 2 19 5 13 2 -7 2 -19 0 -25z m-6330 -4 c-3
-3 -12 -4 -19 -1 -8 3 -5 6 6 6 11 1 17 -2 13 -5z m6210 -26 c-3 -7 -5 -2 -5
12 0 14 2 19 5 13 2 -7 2 -19 0 -25z m-6250 16 c-3 -3 -12 -4 -19 -1 -8 3 -5
6 6 6 11 1 17 -2 13 -5z m-57 -14 c-14 -4 -34 -8 -45 -8 -16 0 -15 2 5 8 14 4
34 8 45 8 16 0 15 -2 -5 -8z m6417 -22 c-3 -8 -6 -5 -6 6 -1 11 2 17 5 13 3
-3 4 -12 1 -19z m-6494 5 c-7 -2 -19 -2 -25 0 -7 3 -2 5 12 5 14 0 19 -2 13
-5z m-46 -9 c-3 -3 -12 -4 -19 -1 -8 3 -5 6 6 6 11 1 17 -2 13 -5z m6433 -20
c5 14 17 20 43 22 34 1 37 -1 38 -25 0 -23 1 -24 9 -6 13 30 12 14 -5 -66
l-16 -73 30 -24 c38 -29 54 -82 41 -136 -10 -44 -42 -92 -59 -88 -6 1 -10 -4
-8 -10 1 -8 -7 -12 -23 -10 -18 2 -21 0 -12 -6 18 -12 -6 -22 -53 -22 -34 0
-105 28 -105 41 0 4 17 -2 37 -12 40 -20 78 -25 68 -9 -3 6 -18 10 -32 10 -28
0 -87 56 -76 73 3 6 1 7 -5 3 -7 -4 -12 -14 -12 -22 0 -9 5 -12 12 -8 7 5 8 3
3 -5 -16 -27 -30 11 -30 80 0 70 0 71 40 105 22 20 45 39 52 45 7 5 20 46 30
91 11 53 19 74 22 58 3 -22 4 -23 11 -6z m-6543 0 c-3 -3 -12 -4 -19 -1 -8 3
-5 6 6 6 11 1 17 -2 13 -5z m4784 -51 c13 -16 12 -17 -3 -4 -17 13 -22 21 -14
21 2 0 10 -8 17 -17z m169 -178 c30 -30 52 -55 49 -55 -2 0 -29 25 -59 55 -30
30 -52 55 -49 55 2 0 29 -25 59 -55z m828 20 c6 -49 -55 -151 -143 -240 -53
-54 -59 -59 -19 -16 96 105 172 230 144 239 -7 3 -7 9 2 20 31 37 -95 -14
-142 -58 -3 -3 -41 -39 -85 -80 -44 -41 -64 -57 -45 -36 74 85 147 147 204
176 33 17 65 29 70 27 6 -2 12 -16 14 -32z m-7103 -81 c52 -34 52 -124 0 -158
-37 -25 -97 -20 -129 9 -37 34 -37 101 0 139 31 31 90 35 129 10z m6434 -105
c52 -55 93 -99 90 -99 -2 0 -49 45 -104 100 -55 55 -95 99 -90 99 6 -1 53 -46
104 -100z m-5689 -24 l0 -85 -79 0 -79 0 -4 58 c-1 31 -2 69 0 85 3 27 4 27
83 27 l79 0 0 -85z m5993 -90 c-3 -9 -8 -14 -10 -11 -3 3 -2 9 2 15 9 16 15
13 8 -4z m127 -29 c0 -2 -8 -10 -17 -17 -16 -13 -17 -12 -4 4 13 16 21 21 21
13z m-137 -83 c-7 -2 -19 -2 -25 0 -7 3 -2 5 12 5 14 0 19 -2 13 -5z"/>
<path d="M11673 10585 c-3 -9 -3 -18 -1 -21 3 -3 8 4 11 16 6 23 -1 27 -10 5z"/>
<path d="M10054 9797 c-77 -82 -84 -99 -10 -24 38 38 66 70 64 73 -3 2 -27
-20 -54 -49z"/>
<path d="M10039 9813 c-13 -16 -12 -17 4 -4 9 7 17 15 17 17 0 8 -8 3 -21 -13z"/>
<path d="M9912 9649 c-18 -16 -36 -28 -40 -25 -5 3 -9 -4 -9 -15 -1 -10 -1
-19 1 -19 1 0 22 20 46 45 50 51 51 59 2 14z"/>
<path d="M9731 10264 c0 -11 3 -14 6 -6 3 7 2 16 -1 19 -3 4 -6 -2 -5 -13z"/>
<path d="M9791 9974 c0 -11 3 -14 6 -6 3 7 2 16 -1 19 -3 4 -6 -2 -5 -13z"/>
<path d="M11647 11582 c-41 -45 5 -131 61 -117 15 4 33 11 39 17 20 16 16 82
-5 101 -25 22 -75 21 -95 -1z"/>
<path d="M10423 10895 c-38 -26 -45 -50 -29 -88 30 -73 136 -48 136 31 0 50
-67 85 -107 57z"/>
<path d="M15945 10182 c-6 -5 -29 -14 -52 -21 -44 -12 -55 -27 -28 -37 8 -4
13 -10 10 -14 -3 -5 -1 -11 4 -14 5 -4 12 -2 16 3 3 6 12 8 20 4 19 -7 82 40
82 62 0 10 -4 12 -10 6 -7 -7 -14 -5 -21 5 -7 9 -15 11 -21 6z"/>
<path d="M13005 10620 c-27 -27 -46 -50 -41 -50 4 0 13 6 19 13 7 7 28 30 46
50 52 55 33 45 -24 -13z"/>
<path d="M13031 10573 c-7 -8 -11 -16 -8 -19 2 -2 10 2 17 11 17 20 9 27 -9 8z"/>
<path d="M13450 9723 c-146 -98 -307 -198 -499 -308 l-84 -48 7 -75 c3 -41 6
-86 6 -99 l0 -24 58 32 c163 93 375 224 522 322 157 104 226 155 173 128 -12
-6 -23 -8 -26 -3 -2 4 -2 0 0 -8 3 -11 1 -12 -8 -3 -6 6 -19 9 -28 6 -12 -5
-13 -3 -5 6 11 12 7 61 -5 61 -4 0 -12 -5 -18 -11 -12 -12 -83 -4 -83 10 0 4
32 29 70 55 39 27 73 52 76 57 7 13 14 17 -156 -98z m0 -23 c0 -5 -5 -10 -11
-10 -5 0 -7 5 -4 10 3 6 8 10 11 10 2 0 4 -4 4 -10z m100 -80 c0 -5 -4 -10
-10 -10 -5 0 -10 5 -10 10 0 6 5 10 10 10 6 0 10 -4 10 -10z"/>
<path d="M13729 9713 c-13 -16 -12 -17 4 -4 9 7 17 15 17 17 0 8 -8 3 -21 -13z"/>
<path d="M13679 9679 l-24 -20 28 17 c15 9 27 18 27 20 0 8 -8 4 -31 -17z"/>
<path d="M12120 8500 c-9 -6 -10 -10 -3 -10 6 0 15 5 18 10 8 12 4 12 -15 0z"/>
<path d="M12581 8074 c0 -11 3 -14 6 -6 3 7 2 16 -1 19 -3 4 -6 -2 -5 -13z"/>
<path d="M12540 8019 c0 -5 5 -7 10 -4 6 3 10 8 10 11 0 2 -4 4 -10 4 -5 0
-10 -5 -10 -11z"/>
<path d="M12830 8010 c-19 -11 -31 -19 -27 -20 11 0 67 29 67 35 0 7 -1 7 -40
-15z"/>
<path d="M12715 7960 c-3 -6 1 -7 9 -4 18 7 21 14 7 14 -6 0 -13 -4 -16 -10z"/>
<path d="M11080 9952 c-46 -38 -10 -132 50 -132 33 0 73 43 73 78 0 64 -72 95
-123 54z"/>
<path d="M10684 9498 l-19 -23 23 19 c21 18 27 26 19 26 -2 0 -12 -10 -23 -22z"/>
<path d="M10681 9434 c-7 -8 -11 -17 -9 -20 3 -2 13 5 23 16 10 11 14 20 9 20
-5 -1 -15 -8 -23 -16z"/>
<path d="M14315 9180 c-3 -5 -1 -10 4 -10 6 0 11 5 11 10 0 6 -2 10 -4 10 -3
0 -8 -4 -11 -10z"/>
<path d="M13458 8723 c7 -3 16 -2 19 1 4 3 -2 6 -13 5 -11 0 -14 -3 -6 -6z"/>
<path d="M13445 8690 c-3 -6 1 -7 9 -4 18 7 21 14 7 14 -6 0 -13 -4 -16 -10z"/>
<path d="M17410 8465 c0 -12 7 -15 25 -13 14 2 26 8 26 13 0 6 -12 11 -26 13
-18 2 -25 -1 -25 -13z"/>
<path d="M17604 8546 c-10 -26 1 -51 22 -54 24 -3 38 20 29 49 -7 22 -43 25
-51 5z"/>
<path d="M13150 8499 c0 -5 5 -7 10 -4 6 3 10 8 10 11 0 2 -4 4 -10 4 -5 0
-10 -5 -10 -11z"/>
<path d="M13610 8041 c0 -12 28 -22 35 -12 3 5 -2 12 -11 15 -21 8 -24 8 -24
-3z"/>
<path d="M17921 7294 c0 -11 3 -14 6 -6 3 7 2 16 -1 19 -3 4 -6 -2 -5 -13z"/>
<path d="M17921 7254 c0 -11 3 -14 6 -6 3 7 2 16 -1 19 -3 4 -6 -2 -5 -13z"/>
<path d="M17990 7226 c0 -2 7 -7 16 -10 8 -3 12 -2 9 4 -6 10 -25 14 -25 6z"/>
<path d="M18043 7203 c9 -2 23 -2 30 0 6 3 -1 5 -18 5 -16 0 -22 -2 -12 -5z"/>
<path d="M13585 13280 c-4 -12 -5 -24 -2 -27 3 -2 8 5 12 17 4 12 5 24 2 27
-3 2 -8 -5 -12 -17z"/>
<path d="M14490 13163 c0 -11 7 -27 16 -34 15 -12 16 -11 9 11 -10 35 -25 49
-25 23z"/>
<path d="M13742 13117 c2 -42 -9 -59 -33 -52 -30 10 -36 -39 -11 -84 17 -29
27 -37 55 -39 30 -3 39 2 60 30 13 18 27 44 30 56 8 35 -26 108 -55 115 -43
12 -49 9 -46 -26z"/>
<path d="M14243 13043 c2 -32 -1 -37 -23 -43 -54 -13 -29 -112 32 -125 24 -6
35 -2 55 18 47 47 40 167 -10 181 -48 13 -57 8 -54 -31z"/>
<path d="M14641 12854 c-16 -89 -40 -148 -116 -289 -36 -66 -65 -121 -65 -122
0 -1 44 18 98 41 53 24 207 85 342 135 135 51 311 120 393 154 134 55 172 77
133 77 -8 0 -100 9 -205 20 -180 19 -517 50 -552 50 -13 0 -20 -16 -28 -66z"/>
<path d="M15444 11941 c-30 -6 -192 -115 -246 -166 -15 -14 -31 -25 -36 -25
-5 0 -21 -11 -35 -24 -14 -13 -27 -22 -29 -21 -4 4 -21 -7 -193 -123 -59 -40
-136 -88 -170 -108 -65 -36 -93 -60 -81 -71 3 -3 6 0 6 8 0 12 2 12 9 0 5 -8
39 -22 75 -31 l66 -16 37 38 c49 50 161 110 288 154 187 65 514 83 650 37 33
-11 78 -25 100 -32 22 -6 63 -26 90 -46 28 -19 64 -41 82 -50 53 -25 199 -162
274 -257 70 -88 109 -162 155 -288 12 -36 30 -83 38 -105 8 -22 15 -67 16
-101 0 -33 5 -85 10 -116 9 -45 7 -69 -9 -135 -10 -44 -26 -93 -34 -109 -9
-17 -14 -47 -13 -67 2 -23 -2 -38 -10 -41 -21 -8 -74 -98 -74 -127 0 -15 11
-56 25 -92 35 -93 74 -253 95 -387 14 -89 18 -156 15 -293 -4 -195 -7 -187 48
-107 150 215 203 316 267 510 65 196 83 318 83 555 0 178 -2 214 -26 326 -61
289 -210 603 -363 765 -27 29 -54 60 -61 70 -6 11 -16 18 -22 17 -6 -2 -10 3
-8 10 1 6 -4 11 -11 9 -8 -1 -11 2 -8 6 8 13 -131 128 -237 196 -188 123 -441
218 -616 231 -42 4 -85 7 -96 9 -11 2 -34 0 -51 -3z m1040 -877 c3 -8 2 -12
-4 -9 -6 3 -10 10 -10 16 0 14 7 11 14 -7z m93 -726 c-3 -8 -6 -5 -6 6 -1 11
2 17 5 13 3 -3 4 -12 1 -19z"/>
<path d="M17200 9500 c0 -5 5 -10 10 -10 6 0 10 5 10 10 0 6 -4 10 -10 10 -5
0 -10 -4 -10 -10z"/>
<path d="M17256 9493 c-6 -14 -5 -15 5 -6 7 7 10 15 7 18 -3 3 -9 -2 -12 -12z"/>
<path d="M17200 9464 c0 -8 -6 -14 -14 -14 -7 0 -19 -6 -25 -13 -6 -8 -23 -12
-41 -9 -29 4 -30 3 -20 -22 10 -27 13 -73 3 -48 -2 6 -9 9 -14 6 -6 -3 -7 5
-3 20 4 17 2 26 -6 26 -7 0 -10 -6 -7 -13 3 -7 -2 -24 -10 -38 l-14 -24 6 30
6 30 -23 -34 c-31 -48 -67 -85 -75 -78 -3 4 -1 7 5 7 7 0 12 8 12 18 -1 15 -2
15 -16 -3 -8 -11 -12 -25 -9 -33 2 -7 1 -11 -4 -8 -14 9 -42 -30 -35 -50 4
-13 3 -15 -3 -6 -7 9 -20 -1 -49 -39 -21 -29 -46 -55 -54 -57 -12 -4 -13 -2
-2 9 6 7 12 20 12 29 -1 9 -7 4 -15 -11 -8 -15 -21 -29 -30 -32 -8 -4 -12 -13
-9 -22 5 -11 2 -14 -9 -9 -12 4 -15 1 -12 -14 3 -18 1 -19 -26 -8 -23 8 -32 8
-38 -2 -5 -8 -12 -13 -16 -12 -13 4 -55 -39 -56 -57 -1 -10 -2 -22 -4 -28 -1
-5 -3 -15 -3 -21 -1 -6 -12 -11 -24 -10 -19 1 -23 -4 -23 -27 -1 -15 -8 -34
-16 -42 -13 -13 -15 -13 -16 5 -1 12 4 20 14 20 22 0 14 6 -19 14 -23 5 -28 3
-28 -11 0 -15 2 -16 10 -3 7 11 10 7 10 -18 0 -20 -4 -31 -10 -27 -5 3 -10 1
-10 -6 0 -7 -3 -9 -6 -6 -4 4 -1 13 6 22 8 9 8 15 2 15 -12 0 -26 -36 -18 -48
3 -5 -1 -9 -9 -9 -8 0 -15 5 -15 10 0 6 -2 8 -5 6 -2 -3 2 -49 11 -103 8 -53
12 -102 8 -107 -9 -16 35 -78 83 -114 51 -39 50 -39 129 21 77 57 143 125 137
140 -4 10 0 12 13 8 16 -5 16 -4 4 5 -13 10 -8 15 13 12 4 0 7 6 7 14 0 9 6
18 14 21 8 3 17 13 20 21 5 13 4 14 -9 3 -8 -7 -15 -9 -15 -5 0 3 -12 -8 -27
-27 -15 -18 -32 -36 -37 -39 -5 -4 -6 -12 -2 -18 5 -7 1 -9 -8 -5 -11 4 -16 0
-17 -12 0 -11 -3 -14 -6 -6 -2 6 -9 9 -15 6 -9 -6 28 53 42 66 18 17 162 193
192 235 90 126 203 337 194 361 -3 8 -1 12 4 9 9 -6 30 35 44 86 6 18 5 21 -3
9 -9 -12 -10 -9 -9 13 2 28 13 36 20 15 3 -7 7 -5 11 6 4 10 3 15 -3 11 -6 -3
-10 1 -10 9 0 10 6 13 18 9 9 -3 14 -3 10 1 -12 14 -58 14 -58 0z m-709 -876
c11 -21 11 -22 -4 -9 -10 7 -17 17 -17 22 0 15 9 10 21 -13z"/>
<path d="M17056 9453 c-6 -14 -5 -15 5 -6 7 7 10 15 7 18 -3 3 -9 -2 -12 -12z"/>
<path d="M16995 9349 c-4 -6 -5 -12 -2 -15 2 -3 7 2 10 11 7 17 1 20 -8 4z"/>
<path d="M16526 9119 c-4 -23 -5 -44 -2 -46 2 -2 7 14 11 37 4 23 5 43 2 46
-2 3 -7 -14 -11 -37z"/>
<path d="M16501 9004 c0 -11 3 -14 6 -6 3 7 2 16 -1 19 -3 4 -6 -2 -5 -13z"/>
<path d="M16580 8950 c0 -5 5 -10 10 -10 6 0 10 5 10 10 0 6 -4 10 -10 10 -5
0 -10 -4 -10 -10z"/>
<path d="M16506 8935 c-8 -22 -8 -22 9 -22 17 0 18 6 6 25 -7 11 -10 10 -15
-3z"/>
<path d="M16471 8884 c0 -11 3 -14 6 -6 3 7 2 16 -1 19 -3 4 -6 -2 -5 -13z"/>
<path d="M16441 8689 c0 -19 4 -43 9 -54 6 -13 7 -2 3 30 -7 59 -13 72 -12 24z"/>
<path d="M18211 8414 c0 -11 3 -14 6 -6 3 7 2 16 -1 19 -3 4 -6 -2 -5 -13z"/>
<path d="M18197 8326 c-4 -32 -5 -61 -3 -63 7 -7 19 82 14 103 -2 11 -7 -8
-11 -40z"/>
<path d="M18292 8345 c0 -16 2 -22 5 -12 2 9 2 23 0 30 -3 6 -5 -1 -5 -18z"/>
<path d="M18182 8225 c0 -16 2 -22 5 -12 2 9 2 23 0 30 -3 6 -5 -1 -5 -18z"/>
<path d="M18171 8164 c0 -11 3 -14 6 -6 3 7 2 16 -1 19 -3 4 -6 -2 -5 -13z"/>
<path d="M18161 8104 c0 -11 3 -14 6 -6 3 7 2 16 -1 19 -3 4 -6 -2 -5 -13z"/>
<path d="M18151 8044 c0 -11 3 -14 6 -6 3 7 2 16 -1 19 -3 4 -6 -2 -5 -13z"/>
<path d="M9030 7806 c0 -2 8 -10 18 -17 15 -13 16 -12 3 4 -13 16 -21 21 -21
13z"/>
<path d="M9060 7666 c0 -2 8 -10 18 -17 15 -13 16 -12 3 4 -13 16 -21 21 -21
13z"/>
<path d="M9210 7626 c0 -2 8 -10 18 -17 15 -13 16 -12 3 4 -13 16 -21 21 -21
13z"/>
<path d="M9140 7606 c0 -2 8 -10 18 -17 15 -13 16 -12 3 4 -13 16 -21 21 -21
13z"/>
<path d="M13820 7550 c8 -5 22 -9 30 -9 10 0 8 3 -5 9 -27 12 -43 12 -25 0z"/>
<path d="M13880 7530 c8 -5 24 -10 34 -10 26 0 18 6 -19 14 -22 5 -26 4 -15
-4z"/>
<path d="M11688 7283 c7 -3 16 -2 19 1 4 3 -2 6 -13 5 -11 0 -14 -3 -6 -6z"/>
<path d="M12810 7225 c-30 -9 -37 -13 -20 -13 14 0 41 6 60 13 44 17 19 17
-40 0z"/>
<path d="M13651 6591 c-46 -12 -83 -41 -104 -82 -16 -31 -17 -72 -15 -489 l3
-455 124 -3 c68 -1 128 1 133 6 6 6 9 165 8 366 0 196 3 356 7 356 4 0 20 -20
35 -43 14 -23 76 -112 137 -197 62 -85 135 -189 163 -230 170 -249 188 -262
343 -263 84 -1 107 3 142 21 76 39 74 24 71 544 l-3 463 -130 0 -130 0 -5
-360 c-4 -315 -7 -357 -19 -335 -8 14 -53 79 -101 145 -47 66 -139 197 -204
290 -128 184 -165 228 -210 252 -33 17 -194 27 -245 14z"/>
<path d="M9227 6583 c-4 -3 -7 -156 -7 -340 0 -376 -3 -393 -64 -418 -28 -12
-91 -15 -304 -15 -195 0 -271 -3 -280 -12 -8 -8 -12 -49 -12 -119 0 -88 3
-108 16 -113 27 -10 608 -7 665 4 96 18 173 70 210 142 43 83 49 145 49 505 0
188 -3 348 -6 357 -5 13 -27 16 -133 16 -70 0 -131 -3 -134 -7z"/>
<path d="M9925 6576 c-166 -43 -227 -119 -246 -304 -14 -136 -5 -433 15 -499
34 -107 116 -176 243 -202 88 -17 622 -14 701 4 145 34 221 124 242 286 12 97
12 345 0 432 -20 139 -85 228 -195 270 -57 21 -75 22 -385 24 -240 1 -338 -2
-375 -11z m605 -242 c68 -28 75 -50 75 -259 0 -273 6 -269 -333 -266 -332 2
-322 -7 -322 273 0 272 -7 266 322 267 179 1 225 -2 258 -15z"/>
<path d="M10930 6578 c0 -19 467 -948 488 -971 35 -39 73 -50 172 -51 106 0
144 13 178 61 27 39 482 945 482 961 0 9 -37 12 -149 12 l-150 0 -29 -62 c-17
-35 -71 -148 -122 -253 -50 -104 -116 -243 -147 -307 -50 -103 -73 -138 -73
-110 0 5 -61 135 -136 288 -75 153 -154 316 -175 362 l-38 82 -150 0 c-114 0
-151 -3 -151 -12z"/>
<path d="M12539 6575 c-110 -30 -164 -82 -194 -188 -14 -49 -16 -100 -13 -340
l3 -282 30 -54 c34 -62 84 -102 158 -128 47 -16 92 -18 442 -18 l390 0 3 110
c2 95 0 111 -15 122 -13 10 -97 13 -350 13 l-334 0 -23 23 c-24 24 -45 122
-29 138 5 5 166 10 358 11 l350 3 0 100 0 100 -357 3 -358 2 1 33 c0 51 22
100 49 114 19 9 110 13 356 13 243 0 333 3 342 12 13 13 17 183 6 212 -5 14
-48 16 -388 15 -275 -1 -394 -4 -427 -14z"/>
<path d="M14836 6574 c-9 -23 -7 -197 2 -211 5 -8 67 -13 212 -15 l205 -3 5
-390 5 -390 124 -3 c80 -2 128 1 135 8 8 8 11 132 11 393 l0 381 195 4 c107 1
201 5 208 7 9 4 12 33 10 117 l-3 113 -551 3 c-497 2 -552 1 -558 -14z"/>
<path d="M16325 6583 c-125 -27 -176 -63 -219 -152 l-31 -66 -3 -248 c-4 -292
5 -365 51 -435 25 -36 48 -55 101 -82 l69 -35 394 -3 c274 -2 398 0 408 8 14
12 21 196 7 217 -6 9 -95 13 -347 16 -187 2 -348 7 -358 11 -28 13 -47 60 -47
116 l0 50 349 0 c260 0 352 3 357 12 14 23 17 167 4 183 -11 13 -63 15 -361
15 l-349 0 0 39 c0 49 17 97 38 108 9 4 172 10 362 13 l345 5 0 115 0 115
-375 1 c-206 1 -384 0 -395 -3z"/>
<path d="M17523 6579 c-101 -19 -185 -77 -224 -151 -37 -73 -49 -154 -49 -348
0 -266 24 -359 111 -433 23 -20 69 -46 103 -59 59 -21 75 -22 444 -26 284 -2
387 0 398 9 19 15 20 197 2 222 -12 15 -49 17 -350 19 -323 3 -338 4 -365 24
-52 39 -58 63 -58 251 0 158 2 174 21 200 42 57 50 58 409 61 182 2 334 7 338
11 10 10 12 205 2 220 -8 13 -717 13 -782 0z"/>
<path d="M18485 6578 c-3 -7 -4 -238 -3 -513 l3 -500 130 0 130 0 3 203 2 202
280 0 280 0 0 -199 c0 -172 2 -200 16 -205 30 -12 249 -7 262 6 19 19 17 991
-2 1007 -9 8 -56 11 -142 9 l-129 -3 -2 -95 c-1 -52 -2 -139 -2 -193 l-1 -97
-277 2 -278 3 -5 190 -5 190 -128 3 c-96 2 -129 -1 -132 -10z"/>
<path d="M19386 5375 c-21 -7 -51 -25 -66 -40 l-28 -27 -920 4 c-506 2 -918 0
-915 -4 2 -5 20 -8 39 -8 86 0 721 -82 932 -120 94 -17 154 -20 483 -20 l377
0 15 -24 c42 -64 151 -89 218 -50 48 27 82 96 75 152 -8 58 -29 96 -68 120
-46 27 -96 34 -142 17z m94 -105 c24 -24 26 -57 3 -82 -24 -26 -68 -23 -91 7
-23 29 -19 59 11 80 29 20 53 19 77 -5z"/>
<path d="M8645 5365 c-48 -24 -79 -78 -78 -135 1 -93 66 -160 155 -160 58 0
99 19 128 60 l21 30 381 0 c357 0 389 1 527 25 291 48 815 115 909 115 23 0
42 4 42 8 0 4 -419 6 -931 4 l-930 -4 -27 25 c-15 13 -37 30 -49 36 -31 16
-112 13 -148 -4z m117 -92 c22 -20 24 -66 2 -87 -21 -22 -60 -20 -84 4 -26 26
-25 48 2 77 25 27 54 29 80 6z"/>
<path d="M13456 5339 c-864 -21 -1338 -50 -2046 -125 -525 -56 -1127 -144
-1142 -168 -4 -6 -21 -51 -38 -101 -43 -128 -38 -124 -107 -76 -96 65 -159 88
-316 116 -52 8 -101 23 -117 35 -28 20 -31 20 -103 5 -200 -41 -366 -131 -505
-273 -221 -226 -343 -547 -329 -866 8 -197 61 -326 189 -461 175 -185 385
-285 597 -285 95 1 130 8 501 102 237 61 456 106 463 97 2 -2 22 -37 45 -77
l42 -73 -34 -107 c-133 -417 -237 -754 -234 -757 2 -2 111 19 243 46 415 85
980 190 1087 202 9 1 40 -19 70 -45 535 -467 999 -792 1565 -1099 213 -116
406 -210 593 -289 219 -93 188 -90 347 -25 303 124 787 378 1108 579 389 245
915 644 1122 851 l32 32 113 -17 c225 -35 639 -112 933 -174 165 -35 302 -62
303 -60 2 1 -30 110 -71 241 -42 131 -101 325 -132 431 l-56 192 37 71 c21 39
44 73 52 76 20 8 180 -26 552 -119 l325 -80 110 5 c187 8 313 63 497 216 178
150 250 289 264 511 15 233 -68 526 -209 735 -53 78 -176 206 -252 260 -113
81 -250 138 -395 164 -47 8 -60 7 -85 -9 -25 -14 -217 -60 -254 -60 -6 0 -11
14 -11 30 0 17 -3 30 -7 30 -5 0 -46 7 -92 15 -493 86 -1485 204 -2116 250
-671 49 -1782 72 -2539 54z m1306 -210 c146 -30 291 -139 348 -261 32 -69 60
-179 60 -241 0 -118 -62 -254 -151 -330 -194 -166 -526 -147 -718 41 -67 67
-105 138 -127 242 -43 200 58 415 238 506 97 49 237 66 350 43z m-702 -94 l0
-95 -202 -2 c-112 0 -218 -1 -236 -2 l-32 -1 0 -82 0 -83 205 0 205 0 0 -89 0
-89 -199 -4 c-110 -1 -202 -6 -206 -10 -4 -3 -9 -43 -12 -87 l-6 -81 252 0
251 0 0 -105 0 -105 -292 0 c-161 0 -331 -3 -377 -7 l-84 -6 6 169 c4 93 9
275 12 404 8 328 11 358 38 363 12 2 169 5 350 6 l327 1 0 -95z m1447 45 c7
-9 97 -123 200 -252 103 -129 196 -245 206 -259 17 -24 17 -23 12 46 -2 39 -7
120 -10 180 -3 61 -8 148 -12 194 l-6 84 113 -7 c62 -3 117 -9 121 -12 5 -3 9
-35 9 -70 0 -36 4 -118 10 -182 20 -242 30 -381 35 -497 3 -66 8 -140 11 -163
l6 -44 -99 7 c-104 8 -127 15 -142 44 -15 27 -414 532 -417 528 -1 -1 3 -118
9 -259 6 -142 9 -260 6 -262 -4 -4 -231 12 -235 17 -1 1 -5 70 -8 152 -4 83
-8 184 -11 225 -2 41 -7 184 -11 317 l-7 241 104 -5 c82 -5 107 -10 116 -23z
m-2474 -7 c73 -34 125 -80 155 -137 23 -45 26 -63 27 -146 0 -84 -3 -102 -28
-152 -65 -132 -198 -201 -412 -213 -156 -9 -141 5 -149 -142 -3 -70 -8 -129
-11 -131 -6 -6 -237 -23 -242 -18 -4 4 17 393 33 601 3 39 9 130 13 203 5 73
12 136 15 140 12 11 179 20 371 18 163 -1 184 -3 228 -23z m-793 -46 c0 -48
-36 -668 -48 -817 l-7 -94 -33 -7 c-18 -4 -71 -10 -118 -14 l-84 -7 0 54 c0
29 7 130 15 223 8 94 15 188 14 210 l0 40 -16 -30 c-39 -73 -237 -402 -252
-416 -9 -10 -38 -19 -67 -21 l-51 -5 -105 199 -106 199 -5 -43 c-4 -24 -14
-137 -23 -253 -9 -115 -20 -217 -25 -225 -5 -10 -42 -20 -118 -30 l-111 -16 0
24 c0 25 36 393 70 717 11 105 21 206 22 225 l3 35 100 12 c54 7 103 9 107 5
4 -4 64 -120 134 -257 70 -138 130 -254 134 -258 4 -4 85 122 180 280 95 158
175 290 177 293 4 5 101 14 181 18 31 2 32 1 32 -41z m4528 -26 c46 -5 85 -11
87 -13 3 -2 58 -119 124 -259 65 -139 151 -321 191 -404 139 -288 180 -376
180 -386 0 -5 -10 -7 -22 -4 -13 3 -70 12 -127 20 -58 9 -107 18 -110 21 -4 3
-26 51 -51 107 l-46 102 -144 22 c-80 12 -172 25 -205 28 l-60 7 -29 -91 c-21
-65 -34 -91 -45 -91 -9 0 -63 7 -121 15 -58 8 -108 15 -112 15 -3 0 9 39 28
88 31 78 126 341 250 692 25 69 46 131 49 138 3 8 17 11 42 7 21 -3 75 -9 121
-14z m717 -87 c263 -35 496 -71 502 -77 5 -6 35 -219 30 -223 -1 -1 -65 8
-142 21 -77 12 -141 21 -143 20 -3 -3 82 -720 93 -787 6 -34 3 -34 -112 -8
-48 11 -98 23 -110 25 -24 6 -22 -5 -48 220 -37 328 -68 580 -70 583 -2 2 -63
12 -136 23 -74 11 -135 22 -137 24 -5 5 -21 140 -22 184 l0 33 58 -7 c31 -3
138 -17 237 -31z m-8175 -12 c0 -4 -15 -16 -32 -26 l-33 -17 30 25 c33 29 35
30 35 18z m1549 -469 l158 -471 -96 -17 c-53 -8 -113 -20 -134 -25 -27 -6 -39
-5 -42 3 -2 7 -11 40 -20 75 -9 34 -20 73 -25 86 l-8 23 -204 -38 c-112 -21
-204 -38 -205 -39 -2 0 -3 -4 -3 -10 0 -5 -22 -56 -49 -114 l-50 -104 -113
-26 c-153 -36 -148 -35 -148 -29 0 4 12 31 27 62 14 31 109 232 211 446 101
215 209 442 239 506 l55 117 107 15 c58 8 114 14 124 13 14 -1 48 -91 176
-473z m-1649 367 c0 -5 -5 -10 -11 -10 -5 0 -7 5 -4 10 3 6 8 10 11 10 2 0 4
-4 4 -10z m50 6 c0 -2 -8 -10 -17 -17 -16 -13 -17 -12 -4 4 13 16 21 21 21 13z
m622 -62 c53 -17 122 -64 138 -93 9 -18 -2 -33 -81 -120 l-92 -101 -42 39
c-154 142 -430 -52 -476 -335 -20 -121 5 -202 73 -245 26 -16 46 -19 93 -17
85 5 163 46 238 123 l60 63 74 -61 c40 -34 73 -65 73 -70 0 -4 -42 -50 -92
-101 -151 -152 -311 -228 -478 -230 -77 -1 -92 2 -151 31 -112 56 -159 149
-159 319 0 123 35 258 100 390 156 314 464 488 722 408z m8713 -14 c125 -47
264 -161 347 -283 197 -290 216 -686 39 -803 -116 -76 -259 -71 -434 17 -265
132 -457 432 -460 719 -2 185 75 310 223 364 64 23 205 16 285 -14z m-4855
-760 c0 6 27 10 68 9 49 -1 60 -3 42 -9 -19 -6 -9 -8 37 -9 45 -1 61 -5 59
-13 -1 -7 -1 -10 1 -5 6 10 63 9 63 -2 0 -5 14 -14 31 -20 27 -9 32 -8 36 8 4
16 14 18 68 17 36 -1 67 -5 71 -9 4 -4 13 -2 19 3 14 11 42 9 64 -4 10 -6 12
-5 7 2 -5 8 3 12 23 12 18 0 31 -5 31 -12 0 -9 3 -9 11 -1 9 9 17 9 32 0 15
-9 21 -9 24 1 7 18 21 14 28 -9 8 -23 31 -20 27 5 -2 14 9 16 80 17 57 1 75 4
58 9 -16 5 10 8 75 9 68 0 95 -2 85 -9 -8 -5 -12 -10 -8 -10 3 0 14 -3 24 -7
12 -4 15 -3 10 5 -5 9 22 12 106 10 l113 -2 -100 -6 c-91 -6 -94 -6 -35 -9 36
-2 90 -6 120 -11 l55 -7 -74 -2 c-61 -1 -72 -4 -67 -16 6 -15 -3 -18 -72 -17
-18 0 -30 -3 -27 -7 2 -5 -7 -6 -21 -3 -19 3 -23 7 -12 14 9 7 8 8 -7 6 -11
-2 -20 -8 -20 -15 0 -6 -4 -15 -9 -20 -5 -5 -6 -3 -2 4 4 8 -2 17 -19 25 -22
10 -28 9 -41 -8 -8 -10 -13 -13 -9 -6 10 19 -2 14 -25 -10 -20 -21 -25 -16
-21 20 1 6 -2 12 -7 12 -5 0 -9 -10 -8 -22 1 -13 -5 -34 -13 -47 -15 -23 -15
-24 6 -19 19 5 20 3 11 -12 -12 -19 -38 -16 -38 5 0 8 -8 11 -20 8 -13 -4 -26
1 -34 12 -9 12 -21 16 -40 13 -21 -4 -24 -3 -15 8 15 19 73 18 89 -1 17 -21
30 -19 30 5 0 11 -5 20 -11 20 -5 0 -7 4 -4 10 3 6 -1 7 -9 4 -9 -3 -16 -1
-16 5 0 6 -4 11 -10 11 -5 0 -9 -5 -7 -11 1 -6 -5 -14 -13 -17 -8 -2 -12 -1
-8 3 11 12 -15 34 -28 24 -7 -6 -21 -6 -36 0 -19 7 -25 6 -25 -6 0 -11 9 -14
34 -11 18 2 33 0 33 -4 0 -4 -7 -8 -15 -8 -8 0 -15 -4 -15 -10 0 -16 -50 -12
-66 5 -14 13 -14 15 0 15 8 0 13 6 11 13 -5 11 -48 13 -234 7 -8 0 -12 -3 -8
-6 3 -3 51 -6 106 -6 56 0 101 -3 101 -7 0 -3 -79 -7 -175 -9 -136 -2 -175 1
-175 10 0 10 -2 10 -9 0 -4 -8 -11 -13 -15 -13 -24 3 -28 -2 -24 -33 3 -31 2
-33 -14 -25 -10 6 -15 15 -12 21 4 7 3 8 -5 4 -6 -4 -9 -11 -6 -16 3 -4 -2
-11 -11 -14 -12 -4 -15 -2 -10 9 4 13 2 14 -14 5 -23 -12 -110 -11 -126 2 -7
5 -22 4 -37 -1 -17 -7 -28 -7 -32 -1 -7 11 -45 -5 -57 -24 -5 -8 -8 -7 -8 2 0
6 -9 12 -20 12 -11 0 -20 3 -20 8 0 4 -10 12 -22 17 -13 6 -22 16 -20 23 1 7
-5 12 -13 12 -9 0 -18 6 -21 14 -3 9 -15 13 -30 10 -19 -3 -22 -1 -18 13 5 17
5 17 -9 1 -8 -10 -20 -18 -27 -18 -7 0 -11 3 -7 6 3 4 -1 13 -9 21 -12 12 -18
13 -29 3 -9 -7 -15 -8 -15 -2 0 12 24 22 51 22 11 0 19 7 19 18 0 14 2 15 10
2 7 -11 10 -12 10 -2 0 11 23 13 110 10 61 -1 110 1 110 5 0 4 9 3 20 -3 14
-7 20 -7 20 0z m1633 -37 c-7 -2 -19 -2 -25 0 -7 3 -2 5 12 5 14 0 19 -2 13
-5z m-1993 -13 c0 -5 -2 -10 -4 -10 -3 0 -8 5 -11 10 -3 6 -1 10 4 10 6 0 11
-4 11 -10z m2037 -5 c-4 -8 -2 -17 3 -20 4 -3 10 -1 12 4 1 5 48 12 103 14 55
3 90 3 78 0 -13 -2 -23 -8 -23 -13 0 -5 15 -4 32 1 41 11 41 11 33 -1 -3 -6 4
-10 18 -10 13 0 27 -3 30 -7 9 -8 -44 -44 -55 -37 -4 3 -8 2 -8 -3 0 -4 -12
-9 -27 -10 -14 0 -30 -9 -36 -18 -7 -13 -17 -15 -43 -10 -27 5 -34 3 -34 -10
0 -19 -27 -20 -46 -1 -10 11 -22 12 -43 6 -29 -8 -41 -5 -41 12 0 5 12 8 28 6
15 -2 33 4 42 13 8 8 23 20 33 26 17 9 17 11 2 23 -13 11 -15 10 -10 -2 4 -10
-1 -17 -14 -21 -14 -3 -18 -1 -14 9 3 9 -2 14 -17 14 -11 0 -18 5 -15 10 3 6
-4 10 -17 10 l-23 0 25 14 c33 18 33 18 27 1z m76 8 c-13 -2 -33 -2 -45 0 -13
2 -3 4 22 4 25 0 35 -2 23 -4z m-2858 -13 c-27 -7 -25 -8 20 -10 60 -3 56 -3
78 5 9 4 17 3 17 -2 0 -10 -8 -12 -65 -17 -39 -3 -66 -16 -59 -27 3 -5 -6 -5
-20 1 -19 7 -26 6 -26 -3 0 -8 -3 -8 -9 2 -6 9 -18 12 -37 7 -16 -4 -37 -8
-46 -10 -10 -1 -20 -5 -23 -7 -7 -8 -105 14 -105 23 0 4 7 5 15 2 8 -4 15 -1
15 4 0 6 -10 13 -22 16 -13 3 8 3 46 1 42 -2 63 0 55 6 -9 5 8 8 46 7 l60 -1
-45 -7 -45 -7 48 -1 c36 -2 47 2 47 13 0 11 11 15 43 14 39 -1 40 -2 12 -9z
m3068 -7 c-7 -2 -19 -2 -25 0 -7 3 -2 5 12 5 14 0 19 -2 13 -5z m44 1 c-3 -3
-12 -4 -19 -1 -8 3 -5 6 6 6 11 1 17 -2 13 -5z m-1022 -24 c-3 -5 -1 -10 5
-10 6 0 8 -5 4 -11 -4 -8 -9 -7 -15 2 -7 12 -3 29 7 29 3 0 2 -4 -1 -10z
m1333 -7 c-10 -2 -28 -2 -40 0 -13 2 -5 4 17 4 22 1 32 -1 23 -4z m-2038 -26
c0 -7 -4 -6 -10 3 -8 12 -10 12 -10 1 0 -8 -3 -12 -6 -8 -9 9 6 28 17 22 5 -4
9 -12 9 -18z m2169 17 c33 -4 61 -11 61 -15 0 -9 -67 -4 -102 7 -10 3 -21 -3
-27 -13 -9 -16 -10 -16 -11 -1 0 9 -8 19 -17 21 -29 7 27 8 96 1z m-1494 -13
c3 -5 1 -12 -5 -16 -5 -3 -10 1 -10 9 0 18 6 21 15 7z m-1932 -13 c-2 -5 -10
-8 -16 -8 -7 0 -20 -9 -30 -20 -9 -11 -22 -20 -29 -20 -7 1 -3 9 10 19 12 11
22 24 22 29 0 5 11 9 24 8 13 0 22 -4 19 -8z m2592 -6 c-3 -3 -11 0 -18 7 -9
10 -8 11 6 5 10 -3 15 -9 12 -12z m697 9 c-12 -7 -62 -4 -62 5 0 2 17 4 38 4
23 0 32 -3 24 -9z m43 -1 c3 -5 2 -10 -4 -10 -5 0 -13 5 -16 10 -3 6 -2 10 4
10 5 0 13 -4 16 -10z m55 6 c0 -3 -4 -8 -10 -11 -5 -3 -10 -1 -10 4 0 6 5 11
10 11 6 0 10 -2 10 -4z m153 -3 c-7 -2 -21 -2 -30 0 -10 3 -4 5 12 5 17 0 24
-2 18 -5z m-2772 -39 c51 -20 121 -64 117 -73 -5 -11 -95 -91 -102 -91 -3 0
-25 12 -47 27 -35 23 -52 27 -108 27 -132 -1 -205 -81 -188 -206 6 -45 28 -81
70 -112 38 -28 156 -35 192 -12 24 16 25 21 23 91 -2 40 -1 75 2 78 3 3 38 7
78 9 l72 4 0 -127 0 -126 -57 -26 c-90 -40 -144 -50 -246 -45 -74 3 -102 9
-142 30 -264 136 -194 508 108 567 62 13 177 5 228 -15z m954 -2 c94 -43 135
-101 135 -191 0 -61 -13 -97 -48 -135 -46 -49 -104 -68 -229 -73 l-112 -6 -3
-76 -3 -76 -82 -3 -83 -3 0 297 0 296 188 -4 c168 -3 192 -6 237 -26z m699
-12 c97 -37 182 -123 206 -209 13 -47 13 -136 -1 -185 -15 -53 -88 -129 -152
-157 -77 -33 -195 -38 -286 -10 -141 43 -232 153 -234 283 -3 153 87 267 236
298 60 13 167 3 231 -20z m822 15 c-1 -9 -5 -15 -9 -15 -4 0 -12 0 -18 0 -8 0
-8 5 1 15 16 19 29 19 26 0z m53 0 c6 3 9 0 6 -7 -3 -8 -16 -14 -28 -15 -12 0
-16 1 -9 4 10 4 10 8 0 21 -12 15 -11 16 4 4 9 -8 22 -11 27 -7z m-2309 -5 c0
-5 -8 -10 -17 -10 -15 0 -16 2 -3 10 19 12 20 12 20 0z m-842 -297 l-3 -298
-69 -3 -68 -3 -144 148 -143 148 0 -161 -1 -161 -52 -7 c-29 -3 -68 -6 -85 -6
l-33 0 0 294 0 293 46 7 c91 12 98 10 154 -51 48 -53 231 -243 234 -243 0 0 1
73 1 162 l0 163 65 6 c36 3 73 6 83 7 16 2 17 -16 15 -295z m3799 291 c-3 -3
-12 -4 -19 -1 -8 3 -5 6 6 6 11 1 17 -2 13 -5z m70 -10 c-3 -3 -12 -4 -19 -1
-8 3 -5 6 6 6 11 1 17 -2 13 -5z m-1006 -144 c56 -69 120 -149 143 -177 l41
-53 3 166 2 167 53 -7 c28 -3 64 -6 80 -6 l27 0 0 -300 0 -300 -27 1 c-16 0
-47 4 -70 7 -39 7 -49 16 -187 185 l-146 179 0 -166 0 -166 -72 6 c-40 3 -79
7 -85 10 -10 2 -13 70 -13 292 0 159 2 291 4 293 2 2 36 2 75 -1 l71 -5 101
-125z m1076 134 c-3 -3 -12 -4 -19 -1 -8 3 -5 6 6 6 11 1 17 -2 13 -5z m-4687
-338 l0 -294 -27 -6 c-16 -2 -54 -8 -85 -11 l-58 -6 -1 253 c-1 139 -1 264 -1
278 -2 65 0 69 40 73 20 2 58 4 85 5 l47 2 0 -294z m4497 227 c69 -17 186 -87
191 -114 1 -8 -18 -32 -43 -53 l-46 -38 -22 20 c-50 45 -106 64 -178 60 -55
-3 -73 -8 -94 -28 -44 -41 -58 -77 -53 -137 9 -102 97 -183 199 -183 78 0 79
2 79 93 l0 80 70 -6 c39 -3 75 -9 80 -12 6 -4 10 -57 10 -126 l0 -120 -37 -15
c-190 -80 -445 5 -533 176 -26 51 -43 144 -35 193 30 175 202 263 412 210z
m-4935 -7 c81 -19 124 -54 143 -119 46 -156 -69 -278 -293 -309 l-92 -12 0
-77 0 -77 -63 -11 c-90 -16 -94 -15 -101 20 -9 45 -8 547 2 552 9 6 268 42
322 45 14 1 51 -4 82 -12z m-1796 -181 c28 5 28 5 5 -5 -28 -12 -51 -7 -51 12
0 10 2 10 9 0 5 -8 18 -11 37 -7z m4137 -402 c-7 -2 -21 -2 -30 0 -10 3 -4 5
12 5 17 0 24 -2 18 -5z m60 0 c-7 -2 -19 -2 -25 0 -7 3 -2 5 12 5 14 0 19 -2
13 -5z m-563 -378 l13 -45 51 0 51 0 -38 -31 c-38 -31 -45 -55 -26 -90 18 -35
4 -42 -28 -15 -38 32 -40 32 -85 1 -44 -30 -52 -31 -40 -7 5 9 12 32 15 50 6
29 3 34 -35 60 l-42 27 55 5 54 5 15 47 c8 25 18 44 21 42 3 -2 12 -24 19 -49z
m-700 -10 l13 -45 51 0 51 0 -38 -31 c-38 -31 -45 -55 -26 -90 18 -35 4 -42
-28 -15 -38 32 -40 32 -85 1 -44 -30 -52 -31 -40 -7 5 9 12 32 15 50 6 29 3
34 -35 60 l-42 27 55 5 54 5 15 47 c8 25 18 44 21 42 3 -2 12 -24 19 -49z
m1291 -5 c12 -38 13 -39 62 -42 l51 -3 -38 -25 c-39 -26 -41 -36 -20 -110 l8
-25 -37 28 c-19 15 -39 27 -44 27 -5 0 -26 -12 -47 -26 l-39 -27 7 27 c3 14 9
37 12 50 5 20 -1 30 -37 55 l-42 31 55 0 55 0 13 45 c14 51 25 50 41 -5z m600
0 c12 -38 13 -39 62 -42 l51 -3 -38 -25 c-39 -26 -41 -36 -20 -110 l8 -25 -37
28 c-19 15 -39 27 -44 27 -5 0 -26 -12 -47 -26 l-39 -27 7 27 c3 14 9 37 12
50 5 20 -1 30 -37 55 l-42 31 55 0 55 0 13 45 c14 51 25 50 41 -5z m590 0 c12
-38 13 -39 62 -42 l51 -3 -38 -25 c-39 -26 -41 -36 -20 -110 l8 -25 -37 28
c-19 15 -39 27 -44 27 -5 0 -26 -12 -47 -26 l-39 -27 7 27 c3 14 9 37 12 50 5
20 -1 30 -37 55 l-42 31 55 0 55 0 13 45 c14 51 25 50 41 -5z m-3101 -40 c11
-11 20 -30 20 -43 0 -30 -27 -67 -49 -67 -29 0 -71 39 -71 66 0 29 33 64 60
64 11 0 29 -9 40 -20z m3758 4 c28 -20 29 -61 0 -91 -40 -43 -98 -18 -98 43 0
34 28 64 60 64 9 0 26 -7 38 -16z m-1850 -541 c37 -23 56 -79 43 -125 -11 -36
-62 -85 -78 -75 -5 3 -7 -53 -5 -123 3 -126 3 -128 27 -134 14 -4 45 -26 70
-50 36 -35 45 -51 45 -78 0 -148 -123 -237 -245 -178 -55 27 -90 90 -100 185
-3 29 57 94 106 115 29 12 38 49 40 159 1 43 3 50 9 31 7 -22 8 -20 9 15 0 29
-2 36 -9 25 -8 -12 -10 -12 -10 5 -1 11 -15 29 -33 40 -58 37 -66 128 -17 180
35 37 98 40 148 8z"/>
<path d="M14545 4911 c-87 -40 -125 -110 -125 -228 0 -94 27 -161 85 -212 56
-48 100 -64 180 -65 59 0 78 4 117 27 51 30 104 101 114 155 10 53 -4 150 -28
200 -28 56 -94 115 -146 130 -59 18 -151 14 -197 -7z"/>
<path d="M12724 4903 l-61 -4 -7 -91 c-3 -50 -6 -113 -6 -140 l0 -49 103 7
c61 3 116 13 137 23 49 23 80 73 80 130 0 100 -70 135 -246 124z"/>
<path d="M16741 4730 c-1 -8 -19 -77 -42 -153 -23 -76 -39 -139 -38 -141 10
-7 229 -31 229 -25 0 25 -148 341 -149 319z"/>
<path d="M10467 4442 c-42 -96 -75 -177 -73 -180 6 -5 236 35 243 42 4 4 -84
307 -90 312 -1 1 -37 -77 -80 -174z"/>
<path d="M18412 4489 c-18 -12 -42 -40 -53 -62 -105 -204 110 -561 338 -561
57 0 90 17 127 68 26 34 34 154 16 235 -28 124 -128 261 -227 311 -68 34 -157
38 -201 9z"/>
<path d="M13518 3953 c7 -3 16 -2 19 1 4 3 -2 6 -13 5 -11 0 -14 -3 -6 -6z"/>
<path d="M14673 3953 c9 -2 23 -2 30 0 6 3 -1 5 -18 5 -16 0 -22 -2 -12 -5z"/>
<path d="M14815 3910 c3 -5 8 -10 11 -10 2 0 4 5 4 10 0 6 -5 10 -11 10 -5 0
-7 -4 -4 -10z"/>
<path d="M14866 3908 c3 -4 9 -8 15 -8 5 0 9 4 9 8 0 5 -7 9 -15 9 -8 0 -12
-4 -9 -9z"/>
<path d="M14093 3893 c15 -2 37 -2 50 0 12 2 0 4 -28 4 -27 0 -38 -2 -22 -4z"/>
<path d="M13605 3850 c-17 -8 -17 -9 7 -7 15 1 24 5 22 9 -3 4 -6 8 -7 7 -1 0
-11 -4 -22 -9z"/>
<path d="M15500 3886 c0 -2 7 -7 16 -10 8 -3 12 -2 9 4 -6 10 -25 14 -25 6z"/>
<path d="M15580 3865 c-9 -10 -9 -15 -1 -15 6 0 11 5 11 10 0 6 5 10 11 10 5
0 8 -4 5 -8 -3 -5 1 -9 8 -9 8 0 12 6 9 14 -7 17 -28 17 -43 -2z"/>
<path d="M15465 3830 c3 -5 8 -10 11 -10 2 0 4 5 4 10 0 6 -5 10 -11 10 -5 0
-7 -4 -4 -10z"/>
<path d="M15540 3826 c0 -2 7 -7 16 -10 8 -3 12 -2 9 4 -6 10 -25 14 -25 6z"/>
<path d="M14230 3616 l0 -86 84 0 c75 0 88 3 112 24 35 30 37 87 5 120 -18 18
-36 22 -111 24 l-90 4 0 -86z"/>
<path d="M14987 3676 c-47 -17 -71 -38 -91 -81 -20 -42 -20 -95 -1 -143 32
-76 90 -112 180 -112 93 0 155 65 155 163 0 87 -39 143 -119 172 -52 18 -74
18 -124 1z"/>
<path d="M11570 3535 c-8 -2 -32 -6 -52 -10 l-38 -6 0 -88 0 -87 71 8 c112 13
149 39 149 102 0 23 -4 46 -8 53 -15 24 -75 38 -122 28z"/>
<path d="M14054 2067 c-10 -5 -22 -15 -26 -21 -11 -17 -9 -64 3 -71 6 -4 8
-14 5 -22 -3 -8 -2 -12 3 -8 5 3 16 -2 24 -10 12 -11 17 -12 20 -2 4 9 6 9 6
0 2 -23 19 -14 35 19 17 33 21 75 8 95 -13 21 -56 32 -78 20z"/>
</g>
</svg>
